<svg xmlns="http://www.w3.org/2000/svg" xmlns:xlink="http://www.w3.org/1999/xlink" width="1008" zoomAndPan="magnify" viewBox="0 0 756 280.499991" height="374" preserveAspectRatio="xMidYMid meet" version="1.0">
  <style>
   @media (prefers-color-scheme:dark) { g { fill: #fff } }
  </style>
  <defs>
    <g/>
    <clipPath id="e730e384f9">
      <path d="M 0.671875 12.789062 L 267.460938 12.789062 L 267.460938 279.578125 L 0.671875 279.578125 Z M 0.671875 12.789062 " clip-rule="nonzero"/>
    </clipPath>
    <clipPath id="54fd55d827">
      <path d="M 38.105469 12.789062 L 230.027344 12.789062 C 250.703125 12.789062 267.460938 29.546875 267.460938 50.222656 L 267.460938 242.144531 C 267.460938 262.816406 250.703125 279.578125 230.027344 279.578125 L 38.105469 279.578125 C 17.433594 279.578125 0.671875 262.816406 0.671875 242.144531 L 0.671875 50.222656 C 0.671875 29.546875 17.433594 12.789062 38.105469 12.789062 Z M 38.105469 12.789062 " clip-rule="nonzero"/>
    </clipPath>
    <clipPath id="b5bf3eec07">
      <path d="M 0.671875 0.789062 L 267.460938 0.789062 L 267.460938 267.578125 L 0.671875 267.578125 Z M 0.671875 0.789062 " clip-rule="nonzero"/>
    </clipPath>
    <clipPath id="acee5e7511">
      <path d="M 38.105469 0.789062 L 230.027344 0.789062 C 250.703125 0.789062 267.460938 17.546875 267.460938 38.222656 L 267.460938 230.144531 C 267.460938 250.816406 250.703125 267.578125 230.027344 267.578125 L 38.105469 267.578125 C 17.433594 267.578125 0.671875 250.816406 0.671875 230.144531 L 0.671875 38.222656 C 0.671875 17.546875 17.433594 0.789062 38.105469 0.789062 Z M 38.105469 0.789062 " clip-rule="nonzero"/>
    </clipPath>
    <clipPath id="c90baa48ff">
      <rect x="0" width="268" y="0" height="268"/>
    </clipPath>
    <clipPath id="321e463e60">
      <path d="M 36 48 L 232 48 L 232 244 L 36 244 Z M 36 48 " clip-rule="nonzero"/>
    </clipPath>
    <clipPath id="4ec2e35b0a">
      <path d="M 202.324219 181.402344 C 196.664062 187.058594 187.492188 187.058594 181.835938 181.402344 L 156.859375 156.421875 C 151.199219 150.765625 151.199219 141.59375 156.859375 135.9375 L 181.835938 110.957031 C 187.492188 105.300781 196.664062 105.300781 202.324219 110.957031 L 227.300781 135.9375 C 232.957031 141.59375 232.957031 150.765625 227.300781 156.421875 Z M 86.292969 181.402344 C 80.636719 187.058594 71.464844 187.058594 65.804688 181.402344 L 40.828125 156.421875 C 35.171875 150.765625 35.171875 141.59375 40.828125 135.9375 L 65.804688 110.957031 C 71.464844 105.300781 80.636719 105.300781 86.292969 110.957031 L 111.273438 135.9375 C 116.929688 141.59375 116.929688 150.765625 111.273438 156.421875 Z M 144.308594 239.414062 C 138.652344 245.074219 129.480469 245.074219 123.820312 239.414062 L 98.84375 214.4375 C 93.1875 208.78125 93.1875 199.609375 98.84375 193.949219 L 123.820312 168.972656 C 129.480469 163.316406 138.652344 163.316406 144.308594 168.972656 L 169.285156 193.949219 C 174.945312 199.609375 174.945312 208.78125 169.285156 214.4375 Z M 144.308594 123.386719 C 138.652344 129.042969 129.480469 129.042969 123.820312 123.386719 L 98.84375 98.410156 C 93.1875 92.75 93.1875 83.578125 98.84375 77.921875 L 123.820312 52.945312 C 129.480469 47.285156 138.652344 47.285156 144.308594 52.945312 L 169.285156 77.921875 C 174.945312 83.578125 174.945312 92.75 169.285156 98.410156 Z M 144.308594 123.386719 " clip-rule="nonzero"/>
    </clipPath>
    <clipPath id="399d702e2e">
      <rect x="0" width="425" y="0" height="194"/>
    </clipPath>
  </defs>
  <g clip-path="url(#e730e384f9)">
    <g clip-path="url(#54fd55d827)">
      <g transform="matrix(1, 0, 0, 1, 0, 12)">
        <g clip-path="url(#c90baa48ff)">
          <g clip-path="url(#b5bf3eec07)">
            <g clip-path="url(#acee5e7511)">
              <path fill="#0e2d14" d="M 0.671875 0.789062 L 267.460938 0.789062 L 267.460938 267.578125 L 0.671875 267.578125 Z M 0.671875 0.789062 " fill-opacity="1" fill-rule="nonzero"/>
            </g>
          </g>
        </g>
      </g>
    </g>
  </g>
  <g clip-path="url(#321e463e60)">
    <g clip-path="url(#4ec2e35b0a)">
      <path fill="#a0d2b4" d="M 35.171875 47.285156 L 35.171875 245.074219 L 232.957031 245.074219 L 232.957031 47.285156 Z M 35.171875 47.285156 " fill-opacity="1" fill-rule="nonzero"/>
    </g>
  </g>
  <g transform="matrix(1, 0, 0, 1, 286, 43)">
    <g clip-path="url(#399d702e2e)">
      <g fill="#0e2d14" fill-opacity="1">
        <g transform="translate(1.100596, 153.654903)">
          <g>
            <path d="M 66.140625 -4.109375 C 63.710938 -2.316406 60.738281 -0.972656 57.21875 -0.078125 C 53.695312 0.816406 49.988281 1.265625 46.09375 1.265625 C 35.988281 1.265625 28.171875 -1.3125 22.640625 -6.46875 C 17.117188 -11.625 14.359375 -19.203125 14.359375 -29.203125 L 14.359375 -64.078125 L 1.265625 -64.078125 L 1.265625 -83.03125 L 14.359375 -83.03125 L 14.359375 -103.703125 L 38.984375 -103.703125 L 38.984375 -83.03125 L 60.140625 -83.03125 L 60.140625 -64.078125 L 38.984375 -64.078125 L 38.984375 -29.515625 C 38.984375 -25.941406 39.90625 -23.179688 41.75 -21.234375 C 43.59375 -19.285156 46.195312 -18.3125 49.5625 -18.3125 C 53.457031 -18.3125 56.769531 -19.363281 59.5 -21.46875 Z M 66.140625 -4.109375 "/>
          </g>
        </g>
      </g>
      <g fill="#0e2d14" fill-opacity="1">
        <g transform="translate(69.757774, 153.654903)">
          <g>
            <path d="M 45.609375 -86.1875 C 58.765625 -86.1875 68.867188 -83.054688 75.921875 -76.796875 C 82.972656 -70.535156 86.5 -61.085938 86.5 -48.453125 L 86.5 0 L 63.453125 0 L 63.453125 -10.578125 C 58.828125 -2.679688 50.195312 1.265625 37.5625 1.265625 C 31.039062 1.265625 25.382812 0.160156 20.59375 -2.046875 C 15.8125 -4.253906 12.15625 -7.304688 9.625 -11.203125 C 7.101562 -15.097656 5.84375 -19.519531 5.84375 -24.46875 C 5.84375 -32.351562 8.8125 -38.554688 14.75 -43.078125 C 20.695312 -47.609375 29.878906 -49.875 42.296875 -49.875 L 61.875 -49.875 C 61.875 -55.238281 60.242188 -59.367188 56.984375 -62.265625 C 53.722656 -65.160156 48.828125 -66.609375 42.296875 -66.609375 C 37.773438 -66.609375 33.328125 -65.894531 28.953125 -64.46875 C 24.585938 -63.050781 20.882812 -61.132812 17.84375 -58.71875 L 9 -75.921875 C 13.625 -79.179688 19.171875 -81.707031 25.640625 -83.5 C 32.117188 -85.289062 38.773438 -86.1875 45.609375 -86.1875 Z M 43.71875 -15.3125 C 47.925781 -15.3125 51.660156 -16.285156 54.921875 -18.234375 C 58.191406 -20.179688 60.507812 -23.046875 61.875 -26.828125 L 61.875 -35.515625 L 44.984375 -35.515625 C 34.878906 -35.515625 29.828125 -32.203125 29.828125 -25.578125 C 29.828125 -22.410156 31.0625 -19.90625 33.53125 -18.0625 C 36.007812 -16.226562 39.40625 -15.3125 43.71875 -15.3125 Z M 43.71875 -15.3125 "/>
          </g>
        </g>
      </g>
      <g fill="#0e2d14" fill-opacity="1">
        <g transform="translate(167.140479, 153.654903)">
          <g>
            <path d="M 66.140625 -4.109375 C 63.710938 -2.316406 60.738281 -0.972656 57.21875 -0.078125 C 53.695312 0.816406 49.988281 1.265625 46.09375 1.265625 C 35.988281 1.265625 28.171875 -1.3125 22.640625 -6.46875 C 17.117188 -11.625 14.359375 -19.203125 14.359375 -29.203125 L 14.359375 -64.078125 L 1.265625 -64.078125 L 1.265625 -83.03125 L 14.359375 -83.03125 L 14.359375 -103.703125 L 38.984375 -103.703125 L 38.984375 -83.03125 L 60.140625 -83.03125 L 60.140625 -64.078125 L 38.984375 -64.078125 L 38.984375 -29.515625 C 38.984375 -25.941406 39.90625 -23.179688 41.75 -21.234375 C 43.59375 -19.285156 46.195312 -18.3125 49.5625 -18.3125 C 53.457031 -18.3125 56.769531 -19.363281 59.5 -21.46875 Z M 66.140625 -4.109375 "/>
          </g>
        </g>
      </g>
      <g fill="#0e2d14" fill-opacity="1">
        <g transform="translate(234.219278, 153.654903)">
          <g>
            <path d="M 95.65625 -84.921875 L 59.828125 0 L 34.40625 0 L -1.265625 -84.921875 L 24.15625 -84.921875 L 47.671875 -27.15625 L 71.984375 -84.921875 Z M 95.65625 -84.921875 "/>
          </g>
        </g>
      </g>
      <g fill="#0e2d14" fill-opacity="1">
        <g transform="translate(325.762087, 153.654903)">
          <g>
            <path d="M 45.609375 -86.1875 C 58.765625 -86.1875 68.867188 -83.054688 75.921875 -76.796875 C 82.972656 -70.535156 86.5 -61.085938 86.5 -48.453125 L 86.5 0 L 63.453125 0 L 63.453125 -10.578125 C 58.828125 -2.679688 50.195312 1.265625 37.5625 1.265625 C 31.039062 1.265625 25.382812 0.160156 20.59375 -2.046875 C 15.8125 -4.253906 12.15625 -7.304688 9.625 -11.203125 C 7.101562 -15.097656 5.84375 -19.519531 5.84375 -24.46875 C 5.84375 -32.351562 8.8125 -38.554688 14.75 -43.078125 C 20.695312 -47.609375 29.878906 -49.875 42.296875 -49.875 L 61.875 -49.875 C 61.875 -55.238281 60.242188 -59.367188 56.984375 -62.265625 C 53.722656 -65.160156 48.828125 -66.609375 42.296875 -66.609375 C 37.773438 -66.609375 33.328125 -65.894531 28.953125 -64.46875 C 24.585938 -63.050781 20.882812 -61.132812 17.84375 -58.71875 L 9 -75.921875 C 13.625 -79.179688 19.171875 -81.707031 25.640625 -83.5 C 32.117188 -85.289062 38.773438 -86.1875 45.609375 -86.1875 Z M 43.71875 -15.3125 C 47.925781 -15.3125 51.660156 -16.285156 54.921875 -18.234375 C 58.191406 -20.179688 60.507812 -23.046875 61.875 -26.828125 L 61.875 -35.515625 L 44.984375 -35.515625 C 34.878906 -35.515625 29.828125 -32.203125 29.828125 -25.578125 C 29.828125 -22.410156 31.0625 -19.90625 33.53125 -18.0625 C 36.007812 -16.226562 39.40625 -15.3125 43.71875 -15.3125 Z M 43.71875 -15.3125 "/>
          </g>
        </g>
      </g>
    </g>
  </g>
</svg>
