<svg xmlns="http://www.w3.org/2000/svg" style="max-height:500px" version="1.2" viewBox="0 27.36 232.45 78.14">
  <defs>
    <clipPath id="a">
      <path d="M.13 28.3h76.66v76.36H.13Zm0 0"/>
    </clipPath>
    <clipPath id="b">
      <path d="M13.58 28.3h49.5a13.47 13.47 0 0 1 13.44 13.45v49.46a13.45 13.45 0 0 1-13.45 13.45h-49.5A13.45 13.45 0 0 1 .14 91.21V41.75A13.47 13.47 0 0 1 13.58 28.3Zm0 0"/>
    </clipPath>
  </defs>
  <g clip-path="url(#a)">
    <g clip-path="url(#b)">
      <path fill="#dc143c" d="M.13 28.3h76.35v76.36H.13Zm0 0"/>
    </g>
  </g>
  <path fill="#0a0a0a" d="M123.15 48h-14.91v40.78h-6.2V48H87.1v-5.25h36.04Zm15.75 26.14c-2.63.08-4.88.3-6.73.62a19.5 19.5 0 0 0-4.51 1.3 6.3 6.3 0 0 0-2.55 1.89 4.1 4.1 0 0 0-.78 2.45c0 .86.14 1.6.42 2.22a4.17 4.17 0 0 0 2.83 2.39 7.9 7.9 0 0 0 2.1.27 10.65 10.65 0 0 0 5.13-1.19 13.5 13.5 0 0 0 2.13-1.37c.67-.54 1.33-1.16 1.97-1.85Zm-18.46-13.3a18.56 18.56 0 0 1 5.81-3.89 18.08 18.08 0 0 1 6.9-1.28c1.83 0 3.44.3 4.85.9a9.92 9.92 0 0 1 5.75 6.38 16 16 0 0 1 .75 5.02v20.8h-2.53c-.56 0-1-.08-1.3-.26-.3-.18-.53-.54-.7-1.08l-.64-3.09c-.86.8-1.69 1.5-2.5 2.11a13.59 13.59 0 0 1-5.45 2.5c-1.02.23-2.15.34-3.4.34-1.26 0-2.44-.18-3.56-.53a8.08 8.08 0 0 1-2.9-1.6 7.43 7.43 0 0 1-1.96-2.66 9.41 9.41 0 0 1-.72-3.85 7.2 7.2 0 0 1 1.05-3.7 9.22 9.22 0 0 1 3.44-3.17 22.6 22.6 0 0 1 6.2-2.25 46.7 46.7 0 0 1 9.38-1.03v-2.53c0-2.54-.55-4.45-1.64-5.74-1.09-1.29-2.68-1.94-4.79-1.94a10.36 10.36 0 0 0-6.01 1.72c-.7.44-1.3.84-1.81 1.19-.5.36-1 .53-1.49.53-.38 0-.72-.1-1-.3a3 3 0 0 1-.7-.76Zm42.33 28.46c-2.57 0-4.55-.72-5.94-2.16-1.37-1.44-2.06-3.5-2.06-6.2V61.02h-3.92c-.34 0-.62-.1-.86-.3-.24-.2-.36-.52-.36-.95V57.5l5.34-.67 1.32-10.07a1.27 1.27 0 0 1 1.31-1.08h2.89v11.2h9.4v4.15h-9.4v19.53c0 1.37.33 2.38 1 3.05.66.66 1.52 1 2.56 1a4.67 4.67 0 0 0 2.7-.77c.33-.2.6-.37.82-.53.22-.16.42-.25.6-.25.3 0 .56.18.8.55l1.68 2.73a11 11 0 0 1-3.58 2.17c-1.39.52-2.82.78-4.3.78Zm40.92-33.05-13.27 32.53h-5.14l-13.26-32.53h4.65a1.78 1.78 0 0 1 1.77 1.18l8.26 20.94a92.34 92.34 0 0 1 1.22 4.56l.53-2.25c.2-.75.44-1.52.72-2.3l8.35-20.95a1.83 1.83 0 0 1 1.7-1.18Zm22.18 17.89c-2.63.08-4.88.3-6.73.62a19.5 19.5 0 0 0-4.52 1.3 6.3 6.3 0 0 0-2.54 1.89 4.1 4.1 0 0 0-.78 2.45c0 .86.14 1.6.42 2.22a4.17 4.17 0 0 0 2.83 2.39 7.9 7.9 0 0 0 2.1.27 10.65 10.65 0 0 0 5.13-1.19 13.5 13.5 0 0 0 4.09-3.22Zm-18.46-13.3a18.56 18.56 0 0 1 5.8-3.89 18.08 18.08 0 0 1 6.91-1.28c1.83 0 3.44.3 4.85.9a9.92 9.92 0 0 1 5.75 6.38 16 16 0 0 1 .75 5.02v20.8h-2.53c-.57 0-1-.08-1.3-.26-.3-.18-.53-.54-.7-1.08l-.64-3.09c-.86.8-1.7 1.5-2.5 2.11a13.59 13.59 0 0 1-5.46 2.5c-1 .23-2.14.34-3.39.34-1.26 0-2.45-.18-3.56-.53a8.08 8.08 0 0 1-2.9-1.6 7.43 7.43 0 0 1-1.96-2.66 9.41 9.41 0 0 1-.72-3.85 7.2 7.2 0 0 1 1.05-3.7 9.22 9.22 0 0 1 3.44-3.17 22.6 22.6 0 0 1 6.2-2.25c2.55-.6 5.68-.94 9.37-1.03v-2.53c0-2.54-.54-4.45-1.64-5.74-1.08-1.29-2.68-1.94-4.78-1.94a10.36 10.36 0 0 0-6.01 1.72c-.7.44-1.3.84-1.82 1.19-.5.36-1 .53-1.48.53-.39 0-.72-.1-1-.3a3 3 0 0 1-.7-.76Zm0 0"/>
  <path fill="#fff" d="M60.27 66.02c.2.09.38.17.39.4 0 .21-.18.31-.35.39a7.93 7.93 0 0 0-2.76 2.3l-1.07 1.2a5.7 5.7 0 0 1-3.25 1.68c-.03.1.05.14.1.2.7.85 1.3 1.77 1.52 2.9.19.93.14 1.87.06 2.81a11 11 0 0 0 .15 3.9c.05.17.08.34-.06.47-.16.13-.32.05-.47-.02a5.25 5.25 0 0 0-2.54-.31c-1.19.11-2.37.31-3.57.25a5.26 5.26 0 0 1-3.06-1.26l-.23-.18-.2.91a5.97 5.97 0 0 1-2.16 3.45c-.58.48-1.18.94-1.8 1.4a7.86 7.86 0 0 0-2.27 2.6c-.04.09-.1.18-.16.25-.18.19-.45.18-.55-.04-.74-1.55-2.05-2.54-3.38-3.52-.38-.28-.74-.58-1.09-.9a6.28 6.28 0 0 1-2.05-3.85c-.01-.07 0-.15-.1-.21a6.2 6.2 0 0 1-1.48.91c-1.06.48-2.18.5-3.3.41-1.02-.08-2.03-.25-3.05-.2a8.2 8.2 0 0 0-1.57.29c-.15.04-.32.17-.47 0-.14-.16-.05-.32 0-.5a8 8 0 0 0 .22-2.83c-.05-.72-.15-1.43-.18-2.15a6.02 6.02 0 0 1 1.53-4.39l.26-.3.02-.05c-.2-.14-.44-.15-.67-.21a6.47 6.47 0 0 1-3.4-2.39c-.42-.51-.84-1-1.31-1.47a5.48 5.48 0 0 0-1.79-1.18c-.17-.07-.29-.19-.3-.37 0-.18.12-.27.26-.33a8.08 8.08 0 0 0 3.13-2.62 8.03 8.03 0 0 1 1.85-1.79 5.1 5.1 0 0 1 1.82-.7c.11-.03.24-.03.35-.11.03-.15-.1-.22-.16-.3a6.07 6.07 0 0 1-1.52-3.18 8.63 8.63 0 0 1 0-2.26c.13-1.18.24-2.35.02-3.52a4.8 4.8 0 0 0-.18-.65c-.04-.14-.08-.28.02-.4.12-.13.28-.1.42-.05a9.1 9.1 0 0 0 1.62.31c.97.13 1.92-.06 2.87-.2 1.83-.25 3.5.02 4.92 1.28.03.03.07.04.1.06.13-.14.11-.32.14-.48a6.8 6.8 0 0 1 2.94-4.41c.9-.63 1.81-1.27 2.56-2.1.33-.38.6-.79.83-1.23.04-.1.1-.19.16-.27.17-.18.33-.18.5.01.04.05.08.1.1.16a8.43 8.43 0 0 0 2.64 2.84c.82.62 1.65 1.24 2.34 2a5.6 5.6 0 0 1 1.44 3.4l.02.14c.14 0 .2-.1.29-.17a5.92 5.92 0 0 1 4.46-1.29c1.03.08 2.05.27 3.1.26.6-.01 1.18-.12 1.76-.3.11-.05.23-.07.34.03.1.1.1.24.05.37-.3.85-.27 1.74-.27 2.63 0 .8.16 1.58.2 2.37a6.1 6.1 0 0 1-1.44 4.47l-.38.43c.03.09.1.1.15.1a5.76 5.76 0 0 1 3.72 2.26c.48.58.98 1.15 1.52 1.69.5.48 1.06.85 1.7 1.16M47.5 74.8a12.48 12.48 0 0 0 1.47-14.9 12.37 12.37 0 0 0-12.27-5.91c-2.29.3-4.37 1.13-6.18 2.59-3.66 2.97-5.06 6.87-4.61 11.47a11.13 11.13 0 0 0 2.41 5.84c3.09 3.9 7.11 5.58 12.04 4.82 2.81-.43 5.17-1.8 7.14-3.91m-14.76 5.7a5.03 5.03 0 0 0 2.07 3.75c.9.7 1.83 1.36 2.66 2.15.26.26.55.5.84.77l.46-.5a21.4 21.4 0 0 1 2.7-2.2c1.33-.98 2.24-2.21 2.32-3.94.02-.45.02-.9-.1-1.37a14.01 14.01 0 0 1-10.87 0c-.03.47-.1.87-.08 1.34m6.85-33.71c-.45-.39-.88-.78-1.27-1.22l-.1.06c-.96 1.06-2.14 1.86-3.26 2.73a5.34 5.34 0 0 0-2.2 3.65 5.1 5.1 0 0 0 .08 1.55 14.35 14.35 0 0 1 10.84-.02c.11-.38.15-.74.14-1.1a4.86 4.86 0 0 0-1.73-3.64c-.8-.7-1.69-1.28-2.5-2.01m-8.76 6.4c-1.07-1.15-2.41-1.46-3.92-1.3-1.2.12-2.4.34-3.62.26-.16-.01-.22.06-.21.22.04 1.16-.12 2.3-.22 3.46a5.17 5.17 0 0 0 1.77 4.39c.26.24.52.47.85.66l.23-.44a14.15 14.15 0 0 1 5.55-6.09c.31-.18.32-.2.12-.51a3.9 3.9 0 0 0-.55-.65m19.13 27.64.48-.05c.9-.13 1.81-.26 2.73-.16.31.03.35-.01.34-.34-.01-.48-.01-.95.01-1.43.04-.8.15-1.6.15-2.4a5.1 5.1 0 0 0-2.02-4.05c-.2-.17-.41-.35-.67-.47A14.3 14.3 0 0 1 45 78.51c.04.2.16.31.25.43a4.81 4.81 0 0 0 2.73 1.9c.65.14 1.29.02 1.98 0m-18.59-2.4a14.14 14.14 0 0 1-5.8-6.48c-.6.31-1.04.76-1.45 1.23a5.18 5.18 0 0 0-1.25 4.03c.1 1.02.22 2.03.2 3.05 0 .37.03.39.41.35.34-.03.67-.03 1-.01.99.05 1.95.23 2.93.28 1.79.1 3.06-.73 4.04-2.13.08-.12.1-.22-.08-.32m21.01-26.28-1.4-.12c-.87-.09-1.73-.24-2.61-.14-1.52.17-2.47 1.13-3.38 2.26a14.6 14.6 0 0 1 6.08 6.75c.41-.24.73-.55 1.04-.86a5.16 5.16 0 0 0 1.6-4.1c-.08-1.18-.3-2.36-.25-3.55 0-.2-.09-.28-.3-.24-.24.04-.48.02-.78 0m-.65 10.77a14.1 14.1 0 0 1-.18 7.41c-.07.24 0 .32.23.36.63.11 1.24.03 1.85-.14a5.58 5.58 0 0 0 2.55-1.86c.65-.72 1.24-1.5 2.02-2.1.13-.1.14-.19.01-.3-.9-.74-1.65-1.65-2.4-2.54a4.38 4.38 0 0 0-3.82-1.63c-.15.01-.3.02-.44.14l.18.66m-27-.78a6.18 6.18 0 0 0-1.29.01c-1.1.16-1.93.76-2.64 1.56-.78.89-1.53 1.8-2.4 2.6-.04.04-.08.07-.08.16.34.32.7.65 1.02 1.01.59.65 1.13 1.36 1.77 1.96a4.2 4.2 0 0 0 3.5 1.25c.42-.06.46-.09.34-.5a14.17 14.17 0 0 1 .04-7.7c.05-.22-.01-.32-.26-.35Zm0 0"/>
  <path fill="#fff" d="M28.16 61.95a11.17 11.17 0 0 1 8.38-6.54c5.64-.98 10.85 2.82 12.29 7.78.42 1.44.55 2.9.38 4.4a10.93 10.93 0 0 1-4.75 7.91 10.31 10.31 0 0 1-5.2 1.92c-3.53.31-6.47-.93-8.93-3.42a10.56 10.56 0 0 1-2.88-5.64c-.4-2.2-.18-4.33.71-6.41m2.3-1.84a9.85 9.85 0 0 0-1.97 8.18 9.68 9.68 0 0 0 3.57 5.9 9.44 9.44 0 0 0 8.58 1.95 9.87 9.87 0 0 0 5.77-4.02 9.72 9.72 0 0 0 1.57-8.14 9.87 9.87 0 0 0-4.24-6.03 9.52 9.52 0 0 0-7.69-1.4c-2.25.56-4.1 1.74-5.59 3.56Zm0 0"/>
</svg>