<svg version="1.0" preserveAspectRatio="xMidYMid meet"
    viewBox="1.701834862385321 34.26300028199999 208.8394495412844 56.619000466"
    zoomAndPan="magnify" xmlns:xlink="http://www.w3.org/1999/xlink"
    xmlns="http://www.w3.org/2000/svg" style="max-height: 500px" width="208.8394495412844"
    height="56.619000466">
    <defs>
        <g />
        <clipPath id="245ef4bfa3">
            <path clip-rule="nonzero" d="M 1 34 L 58 34 L 58 91 L 1 91 Z M 1 34" />
        </clipPath>
        <clipPath id="6b6e908a6c">
            <path clip-rule="nonzero"
                d="M 49.574219 72.726562 C 47.949219 74.351562 45.3125 74.351562 43.6875 72.726562 L 36.511719 65.550781 C 34.886719 63.925781 34.886719 61.292969 36.511719 59.667969 L 43.6875 52.492188 C 45.3125 50.867188 47.949219 50.867188 49.574219 52.492188 L 56.746094 59.667969 C 58.371094 61.292969 58.371094 63.925781 56.746094 65.550781 Z M 16.242188 72.726562 C 14.617188 74.351562 11.984375 74.351562 10.355469 72.726562 L 3.183594 65.550781 C 1.558594 63.925781 1.558594 61.292969 3.183594 59.667969 L 10.355469 52.492188 C 11.984375 50.867188 14.617188 50.867188 16.242188 52.492188 L 23.417969 59.667969 C 25.042969 61.292969 25.042969 63.925781 23.417969 65.550781 Z M 32.90625 89.390625 C 31.28125 91.019531 28.648438 91.019531 27.023438 89.390625 L 19.847656 82.21875 C 18.222656 80.59375 18.222656 77.957031 19.847656 76.332031 L 27.023438 69.15625 C 28.648438 67.53125 31.28125 67.53125 32.90625 69.15625 L 40.082031 76.332031 C 41.707031 77.957031 41.707031 80.59375 40.082031 82.21875 Z M 32.90625 56.0625 C 31.28125 57.6875 28.648438 57.6875 27.023438 56.0625 L 19.847656 48.886719 C 18.222656 47.261719 18.222656 44.628906 19.847656 43.003906 L 27.023438 35.828125 C 28.648438 34.203125 31.28125 34.203125 32.90625 35.828125 L 40.082031 43.003906 C 41.707031 44.628906 41.707031 47.261719 40.082031 48.886719 Z M 32.90625 56.0625" />
        </clipPath>
    </defs>
    <g fill-opacity="1" fill="#0a0a0a">
        <g transform="translate(77.690654, 82.63992)">
            <g>
                <path
                    d="M 13.859375 0.484375 C 11.191406 0.484375 9.144531 -0.265625 7.71875 -1.765625 C 6.300781 -3.273438 5.59375 -5.351562 5.59375 -8 L 5.59375 -25.125 L 2.453125 -25.125 C 2.054688 -25.125 1.71875 -25.253906 1.4375 -25.515625 C 1.15625 -25.773438 1.015625 -26.160156 1.015625 -26.671875 L 1.015625 -29.609375 L 5.9375 -30.40625 L 7.5 -38.78125 C 7.59375 -39.175781 7.78125 -39.484375 8.0625 -39.703125 C 8.34375 -39.921875 8.703125 -40.03125 9.140625 -40.03125 L 12.96875 -40.03125 L 12.96875 -30.390625 L 21.15625 -30.390625 L 21.15625 -25.125 L 12.96875 -25.125 L 12.96875 -8.515625 C 12.96875 -7.554688 13.203125 -6.804688 13.671875 -6.265625 C 14.140625 -5.734375 14.78125 -5.46875 15.59375 -5.46875 C 16.050781 -5.46875 16.429688 -5.519531 16.734375 -5.625 C 17.046875 -5.738281 17.316406 -5.851562 17.546875 -5.96875 C 17.773438 -6.09375 17.976562 -6.207031 18.15625 -6.3125 C 18.34375 -6.425781 18.523438 -6.484375 18.703125 -6.484375 C 18.921875 -6.484375 19.097656 -6.425781 19.234375 -6.3125 C 19.378906 -6.207031 19.53125 -6.046875 19.6875 -5.828125 L 21.890625 -2.234375 C 20.816406 -1.335938 19.582031 -0.660156 18.1875 -0.203125 C 16.800781 0.253906 15.359375 0.484375 13.859375 0.484375 Z M 13.859375 0.484375" />
            </g>
        </g>
    </g>
    <g fill-opacity="1" fill="#0a0a0a">
        <g transform="translate(99.919162, 82.63992)">
            <g>
                <path
                    d="M 19.84375 -13.078125 C 17.707031 -12.984375 15.910156 -12.800781 14.453125 -12.53125 C 13.003906 -12.257812 11.84375 -11.914062 10.96875 -11.5 C 10.09375 -11.082031 9.460938 -10.59375 9.078125 -10.03125 C 8.703125 -9.476562 8.515625 -8.875 8.515625 -8.21875 C 8.515625 -6.925781 8.894531 -6 9.65625 -5.4375 C 10.425781 -4.875 11.429688 -4.59375 12.671875 -4.59375 C 14.179688 -4.59375 15.488281 -4.867188 16.59375 -5.421875 C 17.695312 -5.972656 18.78125 -6.804688 19.84375 -7.921875 Z M 2.921875 -26.375 C 6.453125 -29.601562 10.695312 -31.21875 15.65625 -31.21875 C 17.445312 -31.21875 19.046875 -30.921875 20.453125 -30.328125 C 21.867188 -29.742188 23.066406 -28.925781 24.046875 -27.875 C 25.023438 -26.832031 25.765625 -25.582031 26.265625 -24.125 C 26.773438 -22.675781 27.03125 -21.085938 27.03125 -19.359375 L 27.03125 0 L 23.6875 0 C 22.988281 0 22.453125 -0.101562 22.078125 -0.3125 C 21.703125 -0.519531 21.40625 -0.941406 21.1875 -1.578125 L 20.53125 -3.796875 C 19.75 -3.097656 18.988281 -2.484375 18.25 -1.953125 C 17.507812 -1.429688 16.742188 -0.988281 15.953125 -0.625 C 15.160156 -0.269531 14.3125 0 13.40625 0.1875 C 12.5 0.382812 11.492188 0.484375 10.390625 0.484375 C 9.097656 0.484375 7.90625 0.3125 6.8125 -0.03125 C 5.71875 -0.382812 4.769531 -0.910156 3.96875 -1.609375 C 3.175781 -2.304688 2.5625 -3.171875 2.125 -4.203125 C 1.6875 -5.242188 1.46875 -6.453125 1.46875 -7.828125 C 1.46875 -8.609375 1.59375 -9.378906 1.84375 -10.140625 C 2.101562 -10.910156 2.523438 -11.644531 3.109375 -12.34375 C 3.703125 -13.039062 4.46875 -13.695312 5.40625 -14.3125 C 6.34375 -14.925781 7.492188 -15.460938 8.859375 -15.921875 C 10.222656 -16.378906 11.8125 -16.753906 13.625 -17.046875 C 15.4375 -17.335938 17.507812 -17.507812 19.84375 -17.5625 L 19.84375 -19.359375 C 19.84375 -21.410156 19.398438 -22.925781 18.515625 -23.90625 C 17.640625 -24.894531 16.378906 -25.390625 14.734375 -25.390625 C 13.535156 -25.390625 12.539062 -25.25 11.75 -24.96875 C 10.96875 -24.695312 10.273438 -24.382812 9.671875 -24.03125 C 9.078125 -23.6875 8.535156 -23.375 8.046875 -23.09375 C 7.554688 -22.8125 7.015625 -22.671875 6.421875 -22.671875 C 5.898438 -22.671875 5.460938 -22.804688 5.109375 -23.078125 C 4.753906 -23.347656 4.46875 -23.660156 4.25 -24.015625 Z M 2.921875 -26.375" />
            </g>
        </g>
    </g>
    <g fill-opacity="1" fill="#0a0a0a">
        <g transform="translate(129.826059, 82.63992)">
            <g>
                <path
                    d="M 13.859375 0.484375 C 11.191406 0.484375 9.144531 -0.265625 7.71875 -1.765625 C 6.300781 -3.273438 5.59375 -5.351562 5.59375 -8 L 5.59375 -25.125 L 2.453125 -25.125 C 2.054688 -25.125 1.71875 -25.253906 1.4375 -25.515625 C 1.15625 -25.773438 1.015625 -26.160156 1.015625 -26.671875 L 1.015625 -29.609375 L 5.9375 -30.40625 L 7.5 -38.78125 C 7.59375 -39.175781 7.78125 -39.484375 8.0625 -39.703125 C 8.34375 -39.921875 8.703125 -40.03125 9.140625 -40.03125 L 12.96875 -40.03125 L 12.96875 -30.390625 L 21.15625 -30.390625 L 21.15625 -25.125 L 12.96875 -25.125 L 12.96875 -8.515625 C 12.96875 -7.554688 13.203125 -6.804688 13.671875 -6.265625 C 14.140625 -5.734375 14.78125 -5.46875 15.59375 -5.46875 C 16.050781 -5.46875 16.429688 -5.519531 16.734375 -5.625 C 17.046875 -5.738281 17.316406 -5.851562 17.546875 -5.96875 C 17.773438 -6.09375 17.976562 -6.207031 18.15625 -6.3125 C 18.34375 -6.425781 18.523438 -6.484375 18.703125 -6.484375 C 18.921875 -6.484375 19.097656 -6.425781 19.234375 -6.3125 C 19.378906 -6.207031 19.53125 -6.046875 19.6875 -5.828125 L 21.890625 -2.234375 C 20.816406 -1.335938 19.582031 -0.660156 18.1875 -0.203125 C 16.800781 0.253906 15.359375 0.484375 13.859375 0.484375 Z M 13.859375 0.484375" />
            </g>
        </g>
    </g>
    <g fill-opacity="1" fill="#0a0a0a">
        <g transform="translate(152.054568, 82.63992)">
            <g>
                <path
                    d="M 31.28125 -30.65625 L 19.125 0 L 12.421875 0 L 0.265625 -30.65625 L 6.359375 -30.65625 C 6.921875 -30.65625 7.382812 -30.523438 7.75 -30.265625 C 8.125 -30.003906 8.367188 -29.675781 8.484375 -29.28125 L 14.40625 -12.90625 C 14.71875 -11.945312 14.992188 -11.007812 15.234375 -10.09375 C 15.472656 -9.175781 15.679688 -8.257812 15.859375 -7.34375 C 16.054688 -8.257812 16.273438 -9.175781 16.515625 -10.09375 C 16.753906 -11.007812 17.046875 -11.945312 17.390625 -12.90625 L 23.421875 -29.28125 C 23.554688 -29.675781 23.800781 -30.003906 24.15625 -30.265625 C 24.519531 -30.523438 24.953125 -30.65625 25.453125 -30.65625 Z M 31.28125 -30.65625" />
            </g>
        </g>
    </g>
    <g fill-opacity="1" fill="#0a0a0a">
        <g transform="translate(182.857774, 82.63992)">
            <g>
                <path
                    d="M 19.84375 -13.078125 C 17.707031 -12.984375 15.910156 -12.800781 14.453125 -12.53125 C 13.003906 -12.257812 11.84375 -11.914062 10.96875 -11.5 C 10.09375 -11.082031 9.460938 -10.59375 9.078125 -10.03125 C 8.703125 -9.476562 8.515625 -8.875 8.515625 -8.21875 C 8.515625 -6.925781 8.894531 -6 9.65625 -5.4375 C 10.425781 -4.875 11.429688 -4.59375 12.671875 -4.59375 C 14.179688 -4.59375 15.488281 -4.867188 16.59375 -5.421875 C 17.695312 -5.972656 18.78125 -6.804688 19.84375 -7.921875 Z M 2.921875 -26.375 C 6.453125 -29.601562 10.695312 -31.21875 15.65625 -31.21875 C 17.445312 -31.21875 19.046875 -30.921875 20.453125 -30.328125 C 21.867188 -29.742188 23.066406 -28.925781 24.046875 -27.875 C 25.023438 -26.832031 25.765625 -25.582031 26.265625 -24.125 C 26.773438 -22.675781 27.03125 -21.085938 27.03125 -19.359375 L 27.03125 0 L 23.6875 0 C 22.988281 0 22.453125 -0.101562 22.078125 -0.3125 C 21.703125 -0.519531 21.40625 -0.941406 21.1875 -1.578125 L 20.53125 -3.796875 C 19.75 -3.097656 18.988281 -2.484375 18.25 -1.953125 C 17.507812 -1.429688 16.742188 -0.988281 15.953125 -0.625 C 15.160156 -0.269531 14.3125 0 13.40625 0.1875 C 12.5 0.382812 11.492188 0.484375 10.390625 0.484375 C 9.097656 0.484375 7.90625 0.3125 6.8125 -0.03125 C 5.71875 -0.382812 4.769531 -0.910156 3.96875 -1.609375 C 3.175781 -2.304688 2.5625 -3.171875 2.125 -4.203125 C 1.6875 -5.242188 1.46875 -6.453125 1.46875 -7.828125 C 1.46875 -8.609375 1.59375 -9.378906 1.84375 -10.140625 C 2.101562 -10.910156 2.523438 -11.644531 3.109375 -12.34375 C 3.703125 -13.039062 4.46875 -13.695312 5.40625 -14.3125 C 6.34375 -14.925781 7.492188 -15.460938 8.859375 -15.921875 C 10.222656 -16.378906 11.8125 -16.753906 13.625 -17.046875 C 15.4375 -17.335938 17.507812 -17.507812 19.84375 -17.5625 L 19.84375 -19.359375 C 19.84375 -21.410156 19.398438 -22.925781 18.515625 -23.90625 C 17.640625 -24.894531 16.378906 -25.390625 14.734375 -25.390625 C 13.535156 -25.390625 12.539062 -25.25 11.75 -24.96875 C 10.96875 -24.695312 10.273438 -24.382812 9.671875 -24.03125 C 9.078125 -23.6875 8.535156 -23.375 8.046875 -23.09375 C 7.554688 -22.8125 7.015625 -22.671875 6.421875 -22.671875 C 5.898438 -22.671875 5.460938 -22.804688 5.109375 -23.078125 C 4.753906 -23.347656 4.46875 -23.660156 4.25 -24.015625 Z M 2.921875 -26.375" />
            </g>
        </g>
    </g>
    <g clip-path="url(#245ef4bfa3)">
        <g clip-path="url(#6b6e908a6c)">
            <path fill-rule="nonzero" fill-opacity="1"
                d="M 1.558594 34.203125 L 1.558594 91.019531 L 58.371094 91.019531 L 58.371094 34.203125 Z M 1.558594 34.203125"
                fill="#3e8b5f" />
        </g>
    </g>
</svg>