<svg version="1.2" preserveAspectRatio="xMidYMid meet"
    viewBox="0 47.538000556 284.98512526096033 79.002000924" zoomAndPan="magnify"
    xmlns:xlink="http://www.w3.org/1999/xlink" xmlns="http://www.w3.org/2000/svg"
    style="max-height: 500px" width="284.98512526096033" height="79.002000924">
    <defs>
        <clipPath id="75d0f2663d">
            <path
                d="M 0.828125 48.789062 L 77.03125 48.789062 L 77.03125 124.992188 L 0.828125 124.992188 Z M 0.828125 48.789062" />
        </clipPath>
        <clipPath id="ce4071ce80">
            <path
                d="M 23.199219 48.789062 L 54.664062 48.789062 C 60.597656 48.789062 66.285156 51.144531 70.480469 55.339844 C 74.675781 59.535156 77.03125 65.226562 77.03125 71.160156 L 77.03125 102.625 C 77.03125 108.558594 74.675781 114.246094 70.480469 118.441406 C 66.285156 122.636719 60.597656 124.992188 54.664062 124.992188 L 23.199219 124.992188 C 17.265625 124.992188 11.574219 122.636719 7.378906 118.441406 C 3.183594 114.246094 0.828125 108.558594 0.828125 102.625 L 0.828125 71.160156 C 0.828125 65.226562 3.183594 59.535156 7.378906 55.339844 C 11.574219 51.144531 17.265625 48.789062 23.199219 48.789062 Z M 23.199219 48.789062" />
        </clipPath>
        <clipPath id="1b4e973c7e">
            <path d="M 9 56 L 69 56 L 69 118 L 9 118 Z M 9 56" />
        </clipPath>
        <clipPath id="918404fcd6">
            <path
                d="M 0.828125 71.160156 L 0.828125 102.625 C 0.828125 114.980469 10.84375 124.992188 23.199219 124.992188 L 54.664062 124.992188 C 67.019531 124.992188 77.03125 114.980469 77.03125 102.625 L 77.03125 71.160156 C 77.03125 58.804688 67.019531 48.789062 54.664062 48.789062 L 23.199219 48.789062 C 10.84375 48.789062 0.828125 58.804688 0.828125 71.160156 Z M 0.828125 71.160156" />
        </clipPath>
        <clipPath id="433a5725b2">
            <path d="M 24 72 L 54 72 L 54 102 L 24 102 Z M 24 72" />
        </clipPath>
        <clipPath id="1e7aa0f657">
            <path
                d="M 0.828125 71.160156 L 0.828125 102.625 C 0.828125 114.980469 10.84375 124.992188 23.199219 124.992188 L 54.664062 124.992188 C 67.019531 124.992188 77.03125 114.980469 77.03125 102.625 L 77.03125 71.160156 C 77.03125 58.804688 67.019531 48.789062 54.664062 48.789062 L 23.199219 48.789062 C 10.84375 48.789062 0.828125 58.804688 0.828125 71.160156 Z M 0.828125 71.160156" />
        </clipPath>
    </defs>
    <g id="2e41287e59">
        <g clip-path="url(#75d0f2663d)" clip-rule="nonzero">
            <g clip-path="url(#ce4071ce80)" clip-rule="nonzero">
                <path
                    d="M 0.828125 48.789062 L 77.03125 48.789062 L 77.03125 124.992188 L 0.828125 124.992188 Z M 0.828125 48.789062"
                    style="stroke:none;fill-rule:nonzero;fill:#dc143c;fill-opacity:1;" />
            </g>
        </g>
        <g clip-path="url(#1b4e973c7e)" clip-rule="nonzero">
            <g clip-path="url(#918404fcd6)" clip-rule="nonzero">
                <path
                    d="M 68 86.335938 C 68.253906 86.453125 68.503906 86.554688 68.503906 86.851562 C 68.507812 87.144531 68.28125 87.273438 68.046875 87.378906 C 66.539062 88.042969 65.441406 89.191406 64.398438 90.414062 C 63.941406 90.949219 63.484375 91.488281 62.992188 91.992188 C 61.808594 93.207031 60.375 93.960938 58.695312 94.226562 C 58.65625 94.359375 58.753906 94.414062 58.8125 94.484375 C 59.753906 95.621094 60.539062 96.832031 60.832031 98.3125 C 61.082031 99.554688 61.019531 100.796875 60.90625 102.042969 C 60.753906 103.769531 60.644531 105.492188 61.109375 107.195312 C 61.167969 107.421875 61.222656 107.640625 61.023438 107.8125 C 60.820312 107.996094 60.613281 107.878906 60.402344 107.792969 C 59.324219 107.351562 58.195312 107.261719 57.050781 107.375 C 55.480469 107.535156 53.914062 107.792969 52.324219 107.710938 C 50.78125 107.625 49.464844 107 48.28125 106.042969 C 48.195312 105.972656 48.109375 105.902344 47.984375 105.800781 C 47.890625 106.230469 47.808594 106.621094 47.726562 107.015625 C 47.335938 108.886719 46.324219 110.378906 44.867188 111.578125 C 44.09375 112.210938 43.296875 112.820312 42.488281 113.417969 C 41.234375 114.34375 40.230469 115.484375 39.484375 116.851562 C 39.421875 116.972656 39.355469 117.097656 39.265625 117.195312 C 39.035156 117.4375 38.679688 117.429688 38.542969 117.140625 C 37.5625 115.09375 35.828125 113.773438 34.070312 112.476562 C 33.570312 112.113281 33.09375 111.714844 32.632812 111.304688 C 31.089844 109.945312 30.242188 108.210938 29.917969 106.203125 C 29.902344 106.109375 29.914062 106.003906 29.800781 105.921875 C 29.203125 106.414062 28.542969 106.816406 27.832031 107.136719 C 26.429688 107.773438 24.953125 107.789062 23.460938 107.671875 C 22.121094 107.570312 20.789062 107.335938 19.4375 107.421875 C 18.730469 107.464844 18.042969 107.601562 17.359375 107.789062 C 17.160156 107.84375 16.9375 108.015625 16.742188 107.796875 C 16.550781 107.585938 16.675781 107.367188 16.742188 107.136719 C 17.097656 105.910156 17.128906 104.652344 17.039062 103.386719 C 16.96875 102.441406 16.832031 101.496094 16.792969 100.546875 C 16.703125 98.351562 17.355469 96.402344 18.824219 94.746094 C 18.9375 94.617188 19.046875 94.480469 19.15625 94.347656 C 19.171875 94.332031 19.171875 94.304688 19.183594 94.277344 C 18.917969 94.101562 18.601562 94.082031 18.308594 94.003906 C 16.414062 93.507812 15 92.332031 13.800781 90.84375 C 13.257812 90.167969 12.695312 89.511719 12.074219 88.902344 C 11.386719 88.226562 10.597656 87.707031 9.707031 87.339844 C 9.480469 87.246094 9.324219 87.09375 9.3125 86.847656 C 9.300781 86.617188 9.464844 86.488281 9.65625 86.410156 C 11.40625 85.695312 12.640625 84.371094 13.796875 82.953125 C 14.519531 82.066406 15.265625 81.207031 16.238281 80.585938 C 16.976562 80.113281 17.785156 79.8125 18.644531 79.652344 C 18.796875 79.621094 18.964844 79.613281 19.101562 79.507812 C 19.144531 79.3125 18.992188 79.21875 18.890625 79.105469 C 17.820312 77.898438 17.128906 76.511719 16.882812 74.914062 C 16.734375 73.917969 16.789062 72.914062 16.894531 71.917969 C 17.0625 70.367188 17.203125 68.820312 16.917969 67.269531 C 16.863281 66.976562 16.761719 66.695312 16.675781 66.414062 C 16.621094 66.230469 16.570312 66.042969 16.707031 65.882812 C 16.859375 65.707031 17.074219 65.75 17.257812 65.808594 C 17.957031 66.03125 18.671875 66.140625 19.398438 66.234375 C 20.683594 66.398438 21.9375 66.144531 23.191406 65.964844 C 25.609375 65.625 27.820312 65.988281 29.703125 67.660156 C 29.738281 67.691406 29.789062 67.707031 29.835938 67.734375 C 30.003906 67.546875 29.980469 67.3125 30.019531 67.101562 C 30.503906 64.617188 31.84375 62.707031 33.90625 61.265625 C 35.101562 60.429688 36.296875 59.585938 37.277344 58.484375 C 37.714844 57.992188 38.082031 57.453125 38.378906 56.863281 C 38.441406 56.742188 38.503906 56.617188 38.59375 56.519531 C 38.8125 56.269531 39.035156 56.277344 39.25 56.523438 C 39.308594 56.589844 39.359375 56.664062 39.398438 56.738281 C 40.199219 58.320312 41.488281 59.445312 42.875 60.484375 C 43.964844 61.300781 45.054688 62.125 45.96875 63.140625 C 47.113281 64.414062 47.742188 65.917969 47.871094 67.628906 C 47.875 67.6875 47.890625 67.746094 47.902344 67.8125 C 48.085938 67.804688 48.175781 67.675781 48.285156 67.585938 C 50 66.144531 52 65.726562 54.179688 65.890625 C 55.542969 65.992188 56.898438 66.246094 58.273438 66.222656 C 59.070312 66.210938 59.84375 66.066406 60.601562 65.820312 C 60.757812 65.769531 60.917969 65.730469 61.050781 65.867188 C 61.191406 66.007812 61.1875 66.183594 61.125 66.351562 C 60.726562 67.484375 60.769531 68.660156 60.769531 69.835938 C 60.769531 70.886719 60.984375 71.921875 61.039062 72.972656 C 61.15625 75.195312 60.578125 77.171875 59.121094 78.875 C 58.953125 79.070312 58.785156 79.265625 58.628906 79.445312 C 58.671875 79.566406 58.746094 79.574219 58.820312 79.585938 C 60.890625 79.867188 62.445312 81 63.738281 82.566406 C 64.378906 83.339844 65.035156 84.09375 65.753906 84.796875 C 66.40625 85.4375 67.15625 85.933594 68 86.335938 M 51.109375 97.921875 C 54.429688 94.148438 55.839844 89.757812 55.308594 84.765625 C 55.058594 82.425781 54.273438 80.253906 53.058594 78.226562 C 49.699219 72.621094 43.320312 69.535156 36.839844 70.414062 C 33.808594 70.828125 31.054688 71.914062 28.667969 73.84375 C 23.820312 77.761719 21.972656 82.925781 22.570312 89.007812 C 22.851562 91.867188 23.984375 94.464844 25.765625 96.726562 C 29.835938 101.890625 35.15625 104.105469 41.679688 103.097656 C 45.394531 102.527344 48.503906 100.703125 51.109375 97.921875 M 31.601562 105.488281 C 31.609375 105.648438 31.605469 105.808594 31.625 105.96875 C 31.875 107.855469 32.859375 109.296875 34.332031 110.449219 C 35.523438 111.378906 36.765625 112.242188 37.851562 113.296875 C 38.207031 113.636719 38.582031 113.957031 38.96875 114.300781 C 39.140625 114.121094 39.355469 113.882812 39.578125 113.65625 C 40.660156 112.558594 41.894531 111.644531 43.132812 110.738281 C 44.90625 109.445312 46.105469 107.808594 46.210938 105.535156 C 46.238281 104.941406 46.230469 104.339844 46.074219 103.722656 C 41.269531 105.613281 36.503906 105.691406 31.710938 103.722656 C 31.660156 104.335938 31.570312 104.871094 31.601562 105.488281 M 40.652344 60.921875 C 40.066406 60.414062 39.492188 59.890625 38.980469 59.3125 C 38.917969 59.347656 38.878906 59.359375 38.855469 59.386719 C 37.578125 60.785156 36.019531 61.851562 34.539062 63.007812 C 32.949219 64.25 31.882812 65.789062 31.628906 67.824219 C 31.546875 68.496094 31.597656 69.167969 31.730469 69.878906 C 36.519531 68.003906 41.289062 67.984375 46.070312 69.855469 C 46.214844 69.351562 46.265625 68.867188 46.246094 68.390625 C 46.167969 66.46875 45.429688 64.855469 43.964844 63.578125 C 42.90625 62.660156 41.730469 61.894531 40.652344 60.921875 M 29.074219 69.378906 C 27.664062 67.863281 25.886719 67.453125 23.902344 67.65625 C 22.304688 67.820312 20.722656 68.121094 19.105469 68.011719 C 18.890625 68 18.820312 68.089844 18.828125 68.292969 C 18.878906 69.832031 18.675781 71.351562 18.539062 72.875 C 18.328125 75.199219 19.214844 77.097656 20.882812 78.671875 C 21.222656 78.996094 21.570312 79.304688 22.011719 79.550781 C 22.113281 79.347656 22.210938 79.160156 22.304688 78.976562 C 23.230469 77.128906 24.347656 75.417969 25.808594 73.941406 C 26.964844 72.777344 28.230469 71.753906 29.648438 70.921875 C 30.058594 70.683594 30.066406 70.644531 29.796875 70.242188 C 29.601562 69.941406 29.367188 69.667969 29.074219 69.378906 M 54.371094 105.929688 C 54.582031 105.902344 54.789062 105.878906 54.996094 105.851562 C 56.195312 105.691406 57.394531 105.519531 58.609375 105.648438 C 59.023438 105.691406 59.066406 105.632812 59.058594 105.195312 C 59.046875 104.566406 59.046875 103.9375 59.078125 103.304688 C 59.125 102.246094 59.269531 101.191406 59.277344 100.128906 C 59.289062 97.882812 58.238281 96.1875 56.597656 94.785156 C 56.332031 94.554688 56.058594 94.324219 55.71875 94.164062 C 53.964844 97.882812 51.382812 100.828125 47.8125 102.84375 C 47.863281 103.101562 48.019531 103.253906 48.144531 103.417969 C 49.082031 104.636719 50.222656 105.570312 51.757812 105.917969 C 52.597656 106.109375 53.453125 105.953125 54.371094 105.929688 M 29.792969 102.75 C 26.339844 100.707031 23.789062 97.847656 22.125 94.1875 C 21.320312 94.59375 20.746094 95.1875 20.199219 95.8125 C 18.859375 97.34375 18.378906 99.148438 18.554688 101.144531 C 18.675781 102.484375 18.851562 103.820312 18.824219 105.167969 C 18.816406 105.660156 18.859375 105.6875 19.359375 105.636719 C 19.800781 105.589844 20.246094 105.597656 20.691406 105.617188 C 21.988281 105.683594 23.261719 105.925781 24.558594 105.996094 C 26.914062 106.125 28.597656 105.027344 29.894531 103.175781 C 30 103.027344 30.035156 102.886719 29.792969 102.75 M 57.566406 68.007812 C 56.953125 67.957031 56.335938 67.910156 55.722656 67.851562 C 54.570312 67.738281 53.433594 67.535156 52.257812 67.664062 C 50.257812 67.886719 48.996094 69.15625 47.796875 70.65625 C 51.445312 72.773438 54.085938 75.761719 55.832031 79.582031 C 56.382812 79.257812 56.792969 78.851562 57.203125 78.441406 C 58.695312 76.941406 59.441406 75.140625 59.3125 73.019531 C 59.21875 71.457031 58.925781 69.90625 58.988281 68.332031 C 59 68.050781 58.875 67.957031 58.601562 68.003906 C 58.28125 68.058594 57.957031 68.039062 57.566406 68.007812 M 56.703125 82.242188 C 56.964844 83.335938 57.152344 84.445312 57.210938 85.566406 C 57.328125 87.765625 57.15625 89.9375 56.472656 92.046875 C 56.371094 92.367188 56.472656 92.460938 56.769531 92.515625 C 57.605469 92.671875 58.417969 92.5625 59.222656 92.332031 C 60.644531 91.925781 61.644531 90.941406 62.59375 89.878906 C 63.449219 88.921875 64.226562 87.890625 65.261719 87.101562 C 65.433594 86.972656 65.441406 86.855469 65.273438 86.71875 C 64.070312 85.730469 63.09375 84.527344 62.097656 83.347656 C 60.78125 81.789062 59.097656 81.050781 57.050781 81.191406 C 56.851562 81.207031 56.65625 81.222656 56.472656 81.371094 C 56.546875 81.636719 56.617188 81.910156 56.703125 82.242188 M 21.011719 81.214844 C 20.445312 81.179688 19.875 81.148438 19.308594 81.230469 C 17.863281 81.441406 16.753906 82.230469 15.8125 83.296875 C 14.78125 84.464844 13.789062 85.664062 12.644531 86.726562 C 12.589844 86.777344 12.53125 86.828125 12.542969 86.949219 C 12.996094 87.367188 13.464844 87.800781 13.894531 88.28125 C 14.667969 89.144531 15.378906 90.070312 16.234375 90.863281 C 17.535156 92.070312 19.027344 92.734375 20.847656 92.519531 C 21.410156 92.449219 21.460938 92.40625 21.296875 91.851562 C 20.808594 90.167969 20.574219 88.445312 20.597656 86.699219 C 20.621094 84.992188 20.863281 83.304688 21.34375 81.660156 C 21.421875 81.390625 21.339844 81.265625 21.011719 81.214844 Z M 21.011719 81.214844"
                    style="stroke:none;fill-rule:nonzero;fill:#ffffff;fill-opacity:1;" />
            </g>
        </g>
        <g clip-path="url(#433a5725b2)" clip-rule="nonzero">
            <g clip-path="url(#1e7aa0f657)" clip-rule="nonzero">
                <path
                    d="M 25.546875 80.945312 C 26.472656 78.910156 27.726562 77.144531 29.402344 75.703125 C 31.496094 73.902344 33.902344 72.78125 36.628906 72.304688 C 44.082031 71.007812 50.972656 76.035156 52.871094 82.589844 C 53.425781 84.496094 53.59375 86.4375 53.375 88.414062 C 52.886719 92.863281 50.664062 96.285156 47.101562 98.867188 C 45.0625 100.34375 42.742188 101.175781 40.222656 101.402344 C 35.554688 101.820312 31.664062 100.179688 28.417969 96.886719 C 26.367188 94.804688 25.136719 92.285156 24.613281 89.429688 C 24.082031 86.527344 24.371094 83.699219 25.546875 80.945312 M 28.585938 78.511719 C 26.109375 81.734375 25.222656 85.351562 25.980469 89.332031 C 26.582031 92.503906 28.179688 95.117188 30.703125 97.132812 C 34.058594 99.816406 37.839844 100.773438 42.039062 99.714844 C 45.238281 98.90625 47.769531 97.082031 49.667969 94.398438 C 51.976562 91.132812 52.652344 87.515625 51.75 83.640625 C 50.957031 80.25 49.003906 77.625 46.140625 75.667969 C 44.292969 74.40625 42.246094 73.679688 40.027344 73.488281 C 38.667969 73.375 37.316406 73.5 35.980469 73.824219 C 33 74.550781 30.558594 76.113281 28.585938 78.511719 Z M 28.585938 78.511719"
                    style="stroke:none;fill-rule:nonzero;fill:#ffffff;fill-opacity:1;" />
            </g>
        </g>
        <g style="fill:#fff;fill-opacity:1;">
            <g transform="translate(91.138851, 115.961743)">
                <path
                    d="M 48.453125 -53.421875 L 28.9375 -53.421875 L 28.9375 0 L 20.828125 0 L 20.828125 -53.421875 L 1.265625 -53.421875 L 1.265625 -60.28125 L 48.453125 -60.28125 Z M 48.453125 -53.421875"
                    style="stroke:none" />
            </g>
        </g>
        <g style="fill:#fff;fill-opacity:1;">
            <g transform="translate(131.220194, 115.961743)">
                <path
                    d="M 29.015625 -19.1875 C 25.566406 -19.070312 22.628906 -18.796875 20.203125 -18.359375 C 17.785156 -17.921875 15.8125 -17.351562 14.28125 -16.65625 C 12.75 -15.957031 11.640625 -15.128906 10.953125 -14.171875 C 10.265625 -13.222656 9.921875 -12.160156 9.921875 -10.984375 C 9.921875 -9.859375 10.101562 -8.890625 10.46875 -8.078125 C 10.832031 -7.265625 11.328125 -6.597656 11.953125 -6.078125 C 12.585938 -5.554688 13.332031 -5.175781 14.1875 -4.9375 C 15.050781 -4.695312 15.972656 -4.578125 16.953125 -4.578125 C 18.265625 -4.578125 19.46875 -4.710938 20.5625 -4.984375 C 21.65625 -5.253906 22.6875 -5.640625 23.65625 -6.140625 C 24.625 -6.640625 25.550781 -7.238281 26.4375 -7.9375 C 27.320312 -8.644531 28.179688 -9.445312 29.015625 -10.34375 Z M 4.84375 -36.59375 C 7.195312 -38.863281 9.734375 -40.554688 12.453125 -41.671875 C 15.171875 -42.796875 18.1875 -43.359375 21.5 -43.359375 C 23.875 -43.359375 25.988281 -42.96875 27.84375 -42.1875 C 29.695312 -41.40625 31.253906 -40.3125 32.515625 -38.90625 C 33.773438 -37.507812 34.726562 -35.8125 35.375 -33.8125 C 36.019531 -31.820312 36.34375 -29.632812 36.34375 -27.25 L 36.34375 0 L 33.015625 0 C 32.285156 0 31.722656 -0.117188 31.328125 -0.359375 C 30.941406 -0.597656 30.632812 -1.066406 30.40625 -1.765625 L 29.5625 -5.796875 C 28.445312 -4.765625 27.351562 -3.847656 26.28125 -3.046875 C 25.21875 -2.242188 24.097656 -1.566406 22.921875 -1.015625 C 21.742188 -0.472656 20.488281 -0.0546875 19.15625 0.234375 C 17.820312 0.523438 16.34375 0.671875 14.71875 0.671875 C 13.0625 0.671875 11.503906 0.441406 10.046875 -0.015625 C 8.585938 -0.484375 7.316406 -1.175781 6.234375 -2.09375 C 5.160156 -3.019531 4.304688 -4.191406 3.671875 -5.609375 C 3.046875 -7.023438 2.734375 -8.703125 2.734375 -10.640625 C 2.734375 -12.328125 3.195312 -13.945312 4.125 -15.5 C 5.050781 -17.050781 6.550781 -18.429688 8.625 -19.640625 C 10.695312 -20.847656 13.398438 -21.835938 16.734375 -22.609375 C 20.078125 -23.378906 24.171875 -23.820312 29.015625 -23.9375 L 29.015625 -27.25 C 29.015625 -30.5625 28.300781 -33.066406 26.875 -34.765625 C 25.445312 -36.460938 23.359375 -37.3125 20.609375 -37.3125 C 18.753906 -37.3125 17.203125 -37.078125 15.953125 -36.609375 C 14.710938 -36.148438 13.632812 -35.632812 12.71875 -35.0625 C 11.8125 -34.488281 11.023438 -33.96875 10.359375 -33.5 C 9.703125 -33.039062 9.050781 -32.8125 8.40625 -32.8125 C 7.90625 -32.8125 7.472656 -32.941406 7.109375 -33.203125 C 6.742188 -33.472656 6.4375 -33.804688 6.1875 -34.203125 Z M 4.84375 -36.59375"
                    style="stroke:none" />
            </g>
        </g>
        <g style="fill:#fff;fill-opacity:1;">
            <g transform="translate(172.479775, 115.961743)">
                <path
                    d="M 19.015625 0.671875 C 15.648438 0.671875 13.0625 -0.265625 11.25 -2.140625 C 9.4375 -4.023438 8.53125 -6.734375 8.53125 -10.265625 L 8.53125 -36.34375 L 3.40625 -36.34375 C 2.957031 -36.34375 2.578125 -36.472656 2.265625 -36.734375 C 1.960938 -37.003906 1.8125 -37.421875 1.8125 -37.984375 L 1.8125 -40.96875 L 8.796875 -41.859375 L 10.515625 -55.015625 C 10.597656 -55.441406 10.785156 -55.785156 11.078125 -56.046875 C 11.378906 -56.316406 11.765625 -56.453125 12.234375 -56.453125 L 16.03125 -56.453125 L 16.03125 -41.765625 L 28.34375 -41.765625 L 28.34375 -36.34375 L 16.03125 -36.34375 L 16.03125 -10.765625 C 16.03125 -8.972656 16.460938 -7.640625 17.328125 -6.765625 C 18.203125 -5.898438 19.320312 -5.46875 20.6875 -5.46875 C 21.476562 -5.46875 22.160156 -5.570312 22.734375 -5.78125 C 23.304688 -5.988281 23.800781 -6.21875 24.21875 -6.46875 C 24.644531 -6.726562 25.003906 -6.960938 25.296875 -7.171875 C 25.597656 -7.378906 25.859375 -7.484375 26.078125 -7.484375 C 26.472656 -7.484375 26.820312 -7.242188 27.125 -6.765625 L 29.3125 -3.203125 C 28.019531 -1.992188 26.460938 -1.046875 24.640625 -0.359375 C 22.828125 0.328125 20.953125 0.671875 19.015625 0.671875 Z M 19.015625 0.671875"
                    style="stroke:none" />
            </g>
        </g>
        <g style="fill:#fff;fill-opacity:1;">
            <g transform="translate(202.635885, 115.961743)">
                <path
                    d="M 42.4375 -42.609375 L 25.0625 0 L 18.34375 0 L 0.96875 -42.609375 L 7.0625 -42.609375 C 7.675781 -42.609375 8.179688 -42.453125 8.578125 -42.140625 C 8.972656 -41.835938 9.238281 -41.472656 9.375 -41.046875 L 20.1875 -13.625 C 20.519531 -12.59375 20.8125 -11.582031 21.0625 -10.59375 C 21.320312 -9.613281 21.5625 -8.632812 21.78125 -7.65625 C 22.007812 -8.632812 22.25 -9.613281 22.5 -10.59375 C 22.75 -11.582031 23.054688 -12.59375 23.421875 -13.625 L 34.359375 -41.046875 C 34.535156 -41.492188 34.816406 -41.863281 35.203125 -42.15625 C 35.597656 -42.457031 36.0625 -42.609375 36.59375 -42.609375 Z M 42.4375 -42.609375"
                    style="stroke:none" />
            </g>
        </g>
        <g style="fill:#fff;fill-opacity:1;">
            <g transform="translate(245.11515, 115.961743)">
                <path
                    d="M 29.015625 -19.1875 C 25.566406 -19.070312 22.628906 -18.796875 20.203125 -18.359375 C 17.785156 -17.921875 15.8125 -17.351562 14.28125 -16.65625 C 12.75 -15.957031 11.640625 -15.128906 10.953125 -14.171875 C 10.265625 -13.222656 9.921875 -12.160156 9.921875 -10.984375 C 9.921875 -9.859375 10.101562 -8.890625 10.46875 -8.078125 C 10.832031 -7.265625 11.328125 -6.597656 11.953125 -6.078125 C 12.585938 -5.554688 13.332031 -5.175781 14.1875 -4.9375 C 15.050781 -4.695312 15.972656 -4.578125 16.953125 -4.578125 C 18.265625 -4.578125 19.46875 -4.710938 20.5625 -4.984375 C 21.65625 -5.253906 22.6875 -5.640625 23.65625 -6.140625 C 24.625 -6.640625 25.550781 -7.238281 26.4375 -7.9375 C 27.320312 -8.644531 28.179688 -9.445312 29.015625 -10.34375 Z M 4.84375 -36.59375 C 7.195312 -38.863281 9.734375 -40.554688 12.453125 -41.671875 C 15.171875 -42.796875 18.1875 -43.359375 21.5 -43.359375 C 23.875 -43.359375 25.988281 -42.96875 27.84375 -42.1875 C 29.695312 -41.40625 31.253906 -40.3125 32.515625 -38.90625 C 33.773438 -37.507812 34.726562 -35.8125 35.375 -33.8125 C 36.019531 -31.820312 36.34375 -29.632812 36.34375 -27.25 L 36.34375 0 L 33.015625 0 C 32.285156 0 31.722656 -0.117188 31.328125 -0.359375 C 30.941406 -0.597656 30.632812 -1.066406 30.40625 -1.765625 L 29.5625 -5.796875 C 28.445312 -4.765625 27.351562 -3.847656 26.28125 -3.046875 C 25.21875 -2.242188 24.097656 -1.566406 22.921875 -1.015625 C 21.742188 -0.472656 20.488281 -0.0546875 19.15625 0.234375 C 17.820312 0.523438 16.34375 0.671875 14.71875 0.671875 C 13.0625 0.671875 11.503906 0.441406 10.046875 -0.015625 C 8.585938 -0.484375 7.316406 -1.175781 6.234375 -2.09375 C 5.160156 -3.019531 4.304688 -4.191406 3.671875 -5.609375 C 3.046875 -7.023438 2.734375 -8.703125 2.734375 -10.640625 C 2.734375 -12.328125 3.195312 -13.945312 4.125 -15.5 C 5.050781 -17.050781 6.550781 -18.429688 8.625 -19.640625 C 10.695312 -20.847656 13.398438 -21.835938 16.734375 -22.609375 C 20.078125 -23.378906 24.171875 -23.820312 29.015625 -23.9375 L 29.015625 -27.25 C 29.015625 -30.5625 28.300781 -33.066406 26.875 -34.765625 C 25.445312 -36.460938 23.359375 -37.3125 20.609375 -37.3125 C 18.753906 -37.3125 17.203125 -37.078125 15.953125 -36.609375 C 14.710938 -36.148438 13.632812 -35.632812 12.71875 -35.0625 C 11.8125 -34.488281 11.023438 -33.96875 10.359375 -33.5 C 9.703125 -33.039062 9.050781 -32.8125 8.40625 -32.8125 C 7.90625 -32.8125 7.472656 -32.941406 7.109375 -33.203125 C 6.742188 -33.472656 6.4375 -33.804688 6.1875 -34.203125 Z M 4.84375 -36.59375"
                    style="stroke:none" />
            </g>
        </g>
    </g>
</svg>