<svg xmlns="http://www.w3.org/2000/svg" xmlns:xlink="http://www.w3.org/1999/xlink" width="103" zoomAndPan="magnify" viewBox="0 0 77.25 77.25" height="103" preserveAspectRatio="xMidYMid meet" version="1.2"><defs><clipPath id="a2ab281e1f"><path d="M 0 0 L 75.914062 0 L 75.914062 75.914062 L 0 75.914062 Z M 0 0 "/></clipPath><clipPath id="54788bbdfd"><path d="M 22.285156 0 L 53.628906 0 C 59.539062 0 65.207031 2.347656 69.386719 6.527344 C 73.566406 10.707031 75.914062 16.375 75.914062 22.285156 L 75.914062 53.628906 C 75.914062 59.539062 73.566406 65.207031 69.386719 69.386719 C 65.207031 73.566406 59.539062 75.914062 53.628906 75.914062 L 22.285156 75.914062 C 16.375 75.914062 10.707031 73.566406 6.527344 69.386719 C 2.347656 65.207031 0 59.539062 0 53.628906 L 0 22.285156 C 0 16.375 2.347656 10.707031 6.527344 6.527344 C 10.707031 2.347656 16.375 0 22.285156 0 Z M 22.285156 0 "/></clipPath><clipPath id="71be0f42eb"><path d="M 8 7 L 68 7 L 68 69 L 8 69 Z M 8 7 "/></clipPath><clipPath id="924380a0fa"><path d="M 0 22.285156 L 0 53.628906 C 0 65.9375 9.976562 75.914062 22.285156 75.914062 L 53.628906 75.914062 C 65.9375 75.914062 75.914062 65.9375 75.914062 53.628906 L 75.914062 22.285156 C 75.914062 9.976562 65.9375 0 53.628906 0 L 22.285156 0 C 9.976562 0 0 9.976562 0 22.285156 Z M 0 22.285156 "/></clipPath><clipPath id="eebaf0e433"><path d="M 23 23 L 53 23 L 53 53 L 23 53 Z M 23 23 "/></clipPath><clipPath id="e4d4d3cb78"><path d="M 0 22.285156 L 0 53.628906 C 0 65.9375 9.976562 75.914062 22.285156 75.914062 L 53.628906 75.914062 C 65.9375 75.914062 75.914062 65.9375 75.914062 53.628906 L 75.914062 22.285156 C 75.914062 9.976562 65.9375 0 53.628906 0 L 22.285156 0 C 9.976562 0 0 9.976562 0 22.285156 Z M 0 22.285156 "/></clipPath></defs><g id="9f1d0fc5c3"><g clip-rule="nonzero" clip-path="url(#a2ab281e1f)"><g clip-rule="nonzero" clip-path="url(#54788bbdfd)"><path style=" stroke:none;fill-rule:nonzero;fill:#dc143c;fill-opacity:1;" d="M 0 0 L 75.914062 0 L 75.914062 75.914062 L 0 75.914062 Z M 0 0 "/></g></g><g clip-rule="nonzero" clip-path="url(#71be0f42eb)"><g clip-rule="nonzero" clip-path="url(#924380a0fa)"><path style=" stroke:none;fill-rule:nonzero;fill:#ffffff;fill-opacity:1;" d="M 66.914062 37.402344 C 67.167969 37.519531 67.414062 37.621094 67.417969 37.917969 C 67.421875 38.210938 67.191406 38.339844 66.960938 38.441406 C 65.460938 39.101562 64.363281 40.246094 63.328125 41.464844 C 62.871094 42 62.414062 42.535156 61.925781 43.039062 C 60.746094 44.25 59.316406 45 57.644531 45.265625 C 57.605469 45.394531 57.707031 45.449219 57.765625 45.519531 C 58.699219 46.652344 59.480469 47.859375 59.773438 49.335938 C 60.019531 50.570312 59.960938 51.808594 59.851562 53.046875 C 59.695312 54.769531 59.585938 56.488281 60.046875 58.183594 C 60.109375 58.40625 60.164062 58.625 59.964844 58.800781 C 59.761719 58.980469 59.554688 58.863281 59.347656 58.777344 C 58.273438 58.335938 57.144531 58.25 56.007812 58.363281 C 54.441406 58.519531 52.882812 58.777344 51.300781 58.695312 C 49.761719 58.613281 48.449219 57.984375 47.273438 57.03125 C 47.1875 56.964844 47.101562 56.894531 46.972656 56.792969 C 46.882812 57.222656 46.800781 57.613281 46.71875 58.003906 C 46.328125 59.867188 45.324219 61.351562 43.871094 62.546875 C 43.097656 63.179688 42.304688 63.785156 41.503906 64.378906 C 40.25 65.300781 39.25 66.4375 38.507812 67.804688 C 38.445312 67.921875 38.378906 68.046875 38.289062 68.144531 C 38.0625 68.382812 37.707031 68.375 37.570312 68.089844 C 36.589844 66.050781 34.867188 64.738281 33.113281 63.445312 C 32.617188 63.082031 32.144531 62.683594 31.679688 62.277344 C 30.148438 60.921875 29.300781 59.195312 28.980469 57.195312 C 28.964844 57.097656 28.972656 56.996094 28.859375 56.914062 C 28.265625 57.402344 27.605469 57.804688 26.898438 58.125 C 25.503906 58.757812 24.03125 58.773438 22.546875 58.660156 C 21.210938 58.554688 19.882812 58.324219 18.535156 58.40625 C 17.835938 58.449219 17.148438 58.585938 16.46875 58.773438 C 16.269531 58.832031 16.046875 59 15.851562 58.78125 C 15.660156 58.570312 15.789062 58.355469 15.851562 58.125 C 16.207031 56.902344 16.238281 55.648438 16.148438 54.390625 C 16.078125 53.445312 15.945312 52.503906 15.90625 51.558594 C 15.816406 49.375 16.464844 47.429688 17.925781 45.78125 C 18.039062 45.652344 18.148438 45.519531 18.257812 45.382812 C 18.273438 45.367188 18.273438 45.339844 18.285156 45.3125 C 18.019531 45.140625 17.707031 45.121094 17.414062 45.042969 C 15.527344 44.546875 14.117188 43.375 12.921875 41.894531 C 12.382812 41.21875 11.820312 40.566406 11.203125 39.960938 C 10.515625 39.285156 9.730469 38.765625 8.84375 38.402344 C 8.617188 38.308594 8.460938 38.160156 8.449219 37.914062 C 8.441406 37.683594 8.605469 37.554688 8.792969 37.476562 C 10.535156 36.765625 11.765625 35.445312 12.921875 34.03125 C 13.640625 33.152344 14.382812 32.292969 15.351562 31.675781 C 16.085938 31.203125 16.890625 30.90625 17.746094 30.742188 C 17.898438 30.714844 18.066406 30.707031 18.203125 30.601562 C 18.246094 30.40625 18.09375 30.3125 17.992188 30.199219 C 16.925781 29 16.238281 27.617188 15.996094 26.023438 C 15.84375 25.03125 15.898438 24.03125 16.003906 23.042969 C 16.171875 21.496094 16.3125 19.953125 16.027344 18.40625 C 15.972656 18.121094 15.875 17.839844 15.789062 17.554688 C 15.730469 17.375 15.683594 17.1875 15.816406 17.03125 C 15.96875 16.851562 16.183594 16.894531 16.367188 16.953125 C 17.0625 17.175781 17.773438 17.285156 18.496094 17.375 C 19.78125 17.542969 21.027344 17.285156 22.277344 17.109375 C 24.6875 16.769531 26.890625 17.132812 28.765625 18.796875 C 28.800781 18.828125 28.847656 18.847656 28.894531 18.875 C 29.066406 18.6875 29.039062 18.453125 29.082031 18.242188 C 29.5625 15.765625 30.898438 13.863281 32.949219 12.429688 C 34.144531 11.597656 35.332031 10.757812 36.308594 9.660156 C 36.746094 9.167969 37.113281 8.628906 37.40625 8.042969 C 37.46875 7.921875 37.53125 7.800781 37.621094 7.699219 C 37.835938 7.449219 38.0625 7.457031 38.277344 7.707031 C 38.332031 7.769531 38.382812 7.84375 38.421875 7.917969 C 39.222656 9.492188 40.503906 10.617188 41.886719 11.652344 C 42.972656 12.464844 44.058594 13.285156 44.96875 14.296875 C 46.109375 15.566406 46.734375 17.0625 46.863281 18.769531 C 46.867188 18.828125 46.882812 18.886719 46.894531 18.949219 C 47.078125 18.945312 47.167969 18.8125 47.273438 18.722656 C 48.980469 17.289062 50.976562 16.871094 53.144531 17.035156 C 54.507812 17.136719 55.855469 17.390625 57.226562 17.367188 C 58.019531 17.355469 58.789062 17.210938 59.542969 16.964844 C 59.699219 16.917969 59.859375 16.878906 59.992188 17.011719 C 60.132812 17.152344 60.128906 17.328125 60.066406 17.496094 C 59.667969 18.625 59.710938 19.796875 59.710938 20.964844 C 59.710938 22.015625 59.925781 23.042969 59.980469 24.089844 C 60.097656 26.304688 59.519531 28.273438 58.070312 29.972656 C 57.902344 30.167969 57.734375 30.359375 57.578125 30.539062 C 57.621094 30.65625 57.695312 30.667969 57.769531 30.679688 C 59.832031 30.957031 61.382812 32.085938 62.671875 33.648438 C 63.304688 34.417969 63.960938 35.167969 64.675781 35.871094 C 65.328125 36.507812 66.074219 37 66.914062 37.402344 M 50.089844 48.945312 C 53.398438 45.183594 54.800781 40.808594 54.269531 35.835938 C 54.023438 33.507812 53.238281 31.34375 52.03125 29.324219 C 48.683594 23.742188 42.332031 20.667969 35.875 21.542969 C 32.855469 21.953125 30.113281 23.035156 27.734375 24.957031 C 22.90625 28.859375 21.0625 34.003906 21.660156 40.0625 C 21.941406 42.910156 23.066406 45.5 24.839844 47.753906 C 28.898438 52.898438 34.195312 55.105469 40.695312 54.101562 C 44.394531 53.53125 47.496094 51.714844 50.089844 48.945312 M 30.65625 56.480469 C 30.664062 56.640625 30.660156 56.800781 30.679688 56.960938 C 30.925781 58.839844 31.910156 60.277344 33.378906 61.425781 C 34.5625 62.347656 35.796875 63.210938 36.882812 64.261719 C 37.234375 64.601562 37.609375 64.917969 37.996094 65.261719 C 38.167969 65.078125 38.378906 64.84375 38.601562 64.617188 C 39.679688 63.527344 40.910156 62.613281 42.144531 61.710938 C 43.90625 60.421875 45.105469 58.792969 45.210938 56.53125 C 45.238281 55.9375 45.230469 55.339844 45.074219 54.722656 C 40.289062 56.605469 35.539062 56.683594 30.761719 54.722656 C 30.714844 55.332031 30.625 55.867188 30.65625 56.480469 M 39.671875 12.085938 C 39.089844 11.578125 38.519531 11.058594 38.003906 10.480469 C 37.941406 10.519531 37.90625 10.53125 37.882812 10.554688 C 36.609375 11.949219 35.058594 13.011719 33.582031 14.164062 C 31.996094 15.398438 30.9375 16.933594 30.683594 18.960938 C 30.601562 19.628906 30.652344 20.300781 30.785156 21.007812 C 35.554688 19.140625 40.304688 19.121094 45.066406 20.984375 C 45.210938 20.484375 45.261719 20 45.242188 19.527344 C 45.167969 17.613281 44.429688 16.003906 42.96875 14.734375 C 41.917969 13.816406 40.746094 13.054688 39.671875 12.085938 M 28.136719 20.511719 C 26.730469 19 24.960938 18.589844 22.984375 18.792969 C 21.394531 18.957031 19.816406 19.257812 18.207031 19.148438 C 17.992188 19.136719 17.921875 19.226562 17.929688 19.429688 C 17.980469 20.960938 17.777344 22.476562 17.640625 23.992188 C 17.433594 26.308594 18.316406 28.203125 19.976562 29.769531 C 20.316406 30.089844 20.660156 30.398438 21.101562 30.640625 C 21.203125 30.441406 21.300781 30.257812 21.394531 30.070312 C 22.316406 28.230469 23.429688 26.527344 24.882812 25.058594 C 26.035156 23.894531 27.296875 22.878906 28.707031 22.050781 C 29.117188 21.808594 29.125 21.773438 28.859375 21.371094 C 28.660156 21.070312 28.429688 20.800781 28.136719 20.511719 M 53.339844 56.921875 C 53.546875 56.894531 53.753906 56.871094 53.960938 56.84375 C 55.15625 56.6875 56.347656 56.515625 57.5625 56.640625 C 57.972656 56.6875 58.015625 56.625 58.007812 56.191406 C 57.992188 55.5625 57.996094 54.9375 58.027344 54.308594 C 58.074219 53.25 58.21875 52.203125 58.222656 51.140625 C 58.238281 48.90625 57.191406 47.214844 55.554688 45.816406 C 55.289062 45.589844 55.015625 45.359375 54.679688 45.199219 C 52.933594 48.90625 50.363281 51.839844 46.804688 53.847656 C 46.855469 54.105469 47.011719 54.257812 47.136719 54.421875 C 48.066406 55.632812 49.207031 56.5625 50.734375 56.910156 C 51.574219 57.101562 52.425781 56.945312 53.339844 56.921875 M 28.855469 53.753906 C 25.414062 51.71875 22.875 48.871094 21.214844 45.226562 C 20.414062 45.628906 19.84375 46.222656 19.296875 46.84375 C 17.960938 48.371094 17.484375 50.167969 17.660156 52.15625 C 17.777344 53.488281 17.953125 54.820312 17.925781 56.164062 C 17.917969 56.652344 17.960938 56.679688 18.460938 56.628906 C 18.902344 56.582031 19.34375 56.589844 19.789062 56.613281 C 21.078125 56.675781 22.347656 56.917969 23.640625 56.988281 C 25.988281 57.113281 27.664062 56.023438 28.957031 54.179688 C 29.0625 54.027344 29.09375 53.890625 28.855469 53.753906 M 56.523438 19.144531 C 55.910156 19.09375 55.296875 19.046875 54.683594 18.988281 C 53.539062 18.878906 52.402344 18.671875 51.234375 18.804688 C 49.238281 19.023438 47.984375 20.289062 46.789062 21.78125 C 50.425781 23.890625 53.054688 26.871094 54.792969 30.675781 C 55.34375 30.351562 55.753906 29.945312 56.160156 29.539062 C 57.644531 28.046875 58.390625 26.25 58.261719 24.136719 C 58.164062 22.578125 57.875 21.035156 57.9375 19.46875 C 57.949219 19.1875 57.824219 19.09375 57.550781 19.140625 C 57.234375 19.195312 56.910156 19.175781 56.523438 19.144531 M 55.660156 33.324219 C 55.921875 34.414062 56.109375 35.519531 56.167969 36.636719 C 56.28125 38.824219 56.113281 40.992188 55.433594 43.089844 C 55.328125 43.410156 55.433594 43.503906 55.726562 43.558594 C 56.558594 43.710938 57.367188 43.605469 58.167969 43.375 C 59.585938 42.972656 60.585938 41.992188 61.53125 40.933594 C 62.382812 39.980469 63.15625 38.949219 64.1875 38.164062 C 64.359375 38.035156 64.363281 37.921875 64.195312 37.785156 C 63 36.800781 62.027344 35.601562 61.035156 34.425781 C 59.722656 32.871094 58.046875 32.140625 56.007812 32.277344 C 55.808594 32.292969 55.617188 32.308594 55.433594 32.457031 C 55.503906 32.722656 55.578125 32.996094 55.660156 33.324219 M 20.105469 32.300781 C 19.539062 32.265625 18.972656 32.238281 18.410156 32.316406 C 16.96875 32.523438 15.863281 33.316406 14.925781 34.375 C 13.898438 35.539062 12.910156 36.734375 11.769531 37.792969 C 11.714844 37.84375 11.65625 37.894531 11.667969 38.015625 C 12.121094 38.429688 12.585938 38.863281 13.015625 39.339844 C 13.785156 40.203125 14.492188 41.125 15.34375 41.914062 C 16.644531 43.113281 18.128906 43.777344 19.941406 43.5625 C 20.503906 43.492188 20.550781 43.449219 20.390625 42.894531 C 19.902344 41.21875 19.671875 39.503906 19.695312 37.761719 C 19.714844 36.0625 19.957031 34.382812 20.4375 32.746094 C 20.515625 32.476562 20.429688 32.351562 20.105469 32.300781 Z M 20.105469 32.300781 "/></g></g><g clip-rule="nonzero" clip-path="url(#eebaf0e433)"><g clip-rule="nonzero" clip-path="url(#e4d4d3cb78)"><path style=" stroke:none;fill-rule:nonzero;fill:#ffffff;fill-opacity:1;" d="M 24.625 32.035156 C 25.546875 30.003906 26.792969 28.246094 28.464844 26.808594 C 30.550781 25.015625 32.949219 23.898438 35.664062 23.425781 C 43.085938 22.132812 49.949219 27.140625 51.84375 33.671875 C 52.394531 35.570312 52.5625 37.503906 52.347656 39.476562 C 51.859375 43.90625 49.648438 47.3125 46.097656 49.886719 C 44.0625 51.359375 41.75 52.1875 39.242188 52.410156 C 34.59375 52.828125 30.71875 51.195312 27.484375 47.914062 C 25.441406 45.839844 24.214844 43.332031 23.691406 40.484375 C 23.164062 37.59375 23.453125 34.773438 24.625 32.035156 M 27.652344 29.609375 C 25.1875 32.816406 24.300781 36.421875 25.054688 40.390625 C 25.65625 43.546875 27.25 46.152344 29.757812 48.160156 C 33.101562 50.828125 36.867188 51.785156 41.054688 50.730469 C 44.238281 49.925781 46.761719 48.109375 48.652344 45.433594 C 50.953125 42.179688 51.625 38.578125 50.726562 34.71875 C 49.9375 31.339844 47.988281 28.726562 45.136719 26.777344 C 43.300781 25.519531 41.257812 24.792969 39.046875 24.605469 C 37.695312 24.488281 36.347656 24.613281 35.015625 24.9375 C 32.046875 25.664062 29.617188 27.21875 27.652344 29.609375 Z M 27.652344 29.609375 "/></g></g></g></svg>