<svg xmlns="http://www.w3.org/2000/svg" xmlns:xlink="http://www.w3.org/1999/xlink" width="257" zoomAndPan="magnify" viewBox="0 0 192.75 77.249999" height="103" preserveAspectRatio="xMidYMid meet" version="1.2"><defs><clipPath id="640faa9745"><path d="M 0.804688 0 L 76.714844 0 L 76.714844 75.914062 L 0.804688 75.914062 Z M 0.804688 0 "/></clipPath><clipPath id="23c861ddfa"><path d="M 23.085938 0 L 54.433594 0 C 60.34375 0 66.011719 2.347656 70.1875 6.527344 C 74.367188 10.707031 76.714844 16.375 76.714844 22.285156 L 76.714844 53.628906 C 76.714844 59.539062 74.367188 65.207031 70.1875 69.386719 C 66.011719 73.566406 60.34375 75.914062 54.433594 75.914062 L 23.085938 75.914062 C 17.175781 75.914062 11.507812 73.566406 7.328125 69.386719 C 3.152344 65.207031 0.804688 59.539062 0.804688 53.628906 L 0.804688 22.285156 C 0.804688 16.375 3.152344 10.707031 7.328125 6.527344 C 11.507812 2.347656 17.175781 0 23.085938 0 Z M 23.085938 0 "/></clipPath></defs><g id="27ff753aa9"><g clip-rule="nonzero" clip-path="url(#640faa9745)"><g clip-rule="nonzero" clip-path="url(#23c861ddfa)"><path style=" stroke:none;fill-rule:nonzero;fill:crimson;fill-opacity:1;" d="M 0.804688 0 L 76.714844 0 L 76.714844 75.914062 L 0.804688 75.914062 Z M 0.804688 0 "/></g></g><path style=" stroke:none;fill-rule:nonzero;fill:#ffffff;fill-opacity:1;" d="M 67.71875 37.402344 C 67.96875 37.519531 68.21875 37.621094 68.21875 37.917969 C 68.222656 38.210938 67.996094 38.339844 67.765625 38.441406 C 66.265625 39.101562 65.167969 40.246094 64.128906 41.464844 C 63.675781 42 63.21875 42.535156 62.730469 43.039062 C 61.550781 44.25 60.121094 45 58.445312 45.265625 C 58.410156 45.394531 58.507812 45.449219 58.566406 45.519531 C 59.5 46.652344 60.285156 47.859375 60.578125 49.335938 C 60.824219 50.570312 60.761719 51.808594 60.652344 53.046875 C 60.5 54.769531 60.390625 56.488281 60.851562 58.183594 C 60.914062 58.40625 60.964844 58.625 60.769531 58.800781 C 60.5625 58.980469 60.359375 58.863281 60.148438 58.777344 C 59.074219 58.335938 57.949219 58.25 56.8125 58.363281 C 55.246094 58.519531 53.6875 58.777344 52.101562 58.695312 C 50.566406 58.613281 49.253906 57.984375 48.074219 57.03125 C 47.988281 56.964844 47.902344 56.894531 47.777344 56.792969 C 47.6875 57.222656 47.601562 57.613281 47.519531 58.003906 C 47.132812 59.867188 46.125 61.351562 44.671875 62.546875 C 43.902344 63.179688 43.109375 63.785156 42.304688 64.378906 C 41.054688 65.300781 40.054688 66.4375 39.3125 67.804688 C 39.246094 67.921875 39.183594 68.046875 39.089844 68.144531 C 38.863281 68.382812 38.507812 68.375 38.371094 68.089844 C 37.394531 66.050781 35.671875 64.738281 33.914062 63.445312 C 33.421875 63.082031 32.945312 62.683594 32.484375 62.277344 C 30.949219 60.921875 30.105469 59.195312 29.78125 57.195312 C 29.765625 57.097656 29.777344 56.996094 29.664062 56.914062 C 29.070312 57.402344 28.410156 57.804688 27.703125 58.125 C 26.308594 58.757812 24.832031 58.773438 23.351562 58.660156 C 22.015625 58.554688 20.6875 58.324219 19.339844 58.40625 C 18.636719 58.449219 17.949219 58.585938 17.273438 58.773438 C 17.074219 58.832031 16.851562 59 16.65625 58.78125 C 16.464844 58.570312 16.589844 58.355469 16.65625 58.125 C 17.007812 56.902344 17.039062 55.648438 16.949219 54.390625 C 16.882812 53.445312 16.746094 52.503906 16.707031 51.558594 C 16.617188 49.375 17.265625 47.429688 18.730469 45.78125 C 18.84375 45.652344 18.953125 45.519531 19.0625 45.382812 C 19.074219 45.367188 19.078125 45.339844 19.085938 45.3125 C 18.824219 45.140625 18.507812 45.121094 18.214844 45.042969 C 16.332031 44.546875 14.917969 43.375 13.726562 41.894531 C 13.183594 41.21875 12.625 40.566406 12.007812 39.960938 C 11.320312 39.285156 10.535156 38.765625 9.648438 38.402344 C 9.421875 38.308594 9.265625 38.160156 9.253906 37.914062 C 9.242188 37.683594 9.40625 37.554688 9.597656 37.476562 C 11.339844 36.765625 12.570312 35.445312 13.722656 34.03125 C 14.441406 33.152344 15.183594 32.292969 16.15625 31.675781 C 16.890625 31.203125 17.695312 30.90625 18.550781 30.742188 C 18.703125 30.714844 18.867188 30.707031 19.007812 30.601562 C 19.046875 30.40625 18.894531 30.3125 18.796875 30.199219 C 17.730469 29 17.039062 27.617188 16.796875 26.023438 C 16.644531 25.03125 16.703125 24.03125 16.808594 23.042969 C 16.972656 21.496094 17.117188 19.953125 16.828125 18.40625 C 16.777344 18.121094 16.675781 17.839844 16.589844 17.554688 C 16.535156 17.375 16.484375 17.1875 16.621094 17.03125 C 16.773438 16.851562 16.984375 16.894531 17.171875 16.953125 C 17.867188 17.175781 18.578125 17.285156 19.300781 17.375 C 20.582031 17.542969 21.832031 17.285156 23.078125 17.109375 C 25.488281 16.769531 27.691406 17.132812 29.570312 18.796875 C 29.605469 18.828125 29.652344 18.847656 29.699219 18.875 C 29.867188 18.6875 29.84375 18.453125 29.882812 18.242188 C 30.367188 15.765625 31.699219 13.863281 33.753906 12.429688 C 34.945312 11.597656 36.136719 10.757812 37.113281 9.660156 C 37.550781 9.167969 37.914062 8.628906 38.210938 8.042969 C 38.269531 7.921875 38.335938 7.800781 38.421875 7.699219 C 38.640625 7.449219 38.863281 7.457031 39.078125 7.707031 C 39.132812 7.769531 39.1875 7.84375 39.226562 7.917969 C 40.023438 9.492188 41.308594 10.617188 42.691406 11.652344 C 43.777344 12.464844 44.859375 13.285156 45.769531 14.296875 C 46.910156 15.566406 47.539062 17.0625 47.667969 18.769531 C 47.671875 18.828125 47.6875 18.886719 47.699219 18.949219 C 47.878906 18.945312 47.96875 18.8125 48.078125 18.722656 C 49.785156 17.289062 51.777344 16.871094 53.949219 17.035156 C 55.308594 17.136719 56.65625 17.390625 58.027344 17.367188 C 58.824219 17.355469 59.59375 17.210938 60.34375 16.964844 C 60.503906 16.917969 60.660156 16.878906 60.796875 17.011719 C 60.933594 17.152344 60.929688 17.328125 60.871094 17.496094 C 60.472656 18.625 60.511719 19.796875 60.515625 20.964844 C 60.515625 22.015625 60.726562 23.042969 60.785156 24.089844 C 60.902344 26.304688 60.324219 28.273438 58.871094 29.972656 C 58.707031 30.167969 58.539062 30.359375 58.382812 30.539062 C 58.425781 30.65625 58.5 30.667969 58.570312 30.679688 C 60.636719 30.957031 62.183594 32.085938 63.472656 33.648438 C 64.109375 34.417969 64.765625 35.167969 65.480469 35.871094 C 66.132812 36.507812 66.875 37 67.71875 37.402344 M 50.890625 48.945312 C 54.199219 45.183594 55.601562 40.808594 55.074219 35.835938 C 54.824219 33.507812 54.042969 31.34375 52.832031 29.324219 C 49.488281 23.742188 43.132812 20.667969 36.675781 21.542969 C 33.65625 21.953125 30.914062 23.035156 28.535156 24.957031 C 23.707031 28.859375 21.867188 34.003906 22.464844 40.0625 C 22.742188 42.910156 23.867188 45.5 25.644531 47.753906 C 29.699219 52.898438 34.996094 55.105469 41.496094 54.101562 C 45.195312 53.53125 48.296875 51.714844 50.890625 48.945312 M 31.457031 56.480469 C 31.464844 56.640625 31.460938 56.800781 31.484375 56.960938 C 31.730469 58.839844 32.710938 60.277344 34.179688 61.425781 C 35.363281 62.347656 36.601562 63.210938 37.6875 64.261719 C 38.039062 64.601562 38.414062 64.917969 38.796875 65.261719 C 38.96875 65.078125 39.183594 64.84375 39.40625 64.617188 C 40.484375 63.527344 41.710938 62.613281 42.945312 61.710938 C 44.710938 60.421875 45.90625 58.792969 46.011719 56.53125 C 46.039062 55.9375 46.03125 55.339844 45.878906 54.722656 C 41.089844 56.605469 36.34375 56.683594 31.566406 54.722656 C 31.515625 55.332031 31.429688 55.867188 31.457031 56.480469 M 40.476562 12.085938 C 39.890625 11.578125 39.320312 11.058594 38.808594 10.480469 C 38.746094 10.519531 38.707031 10.53125 38.683594 10.554688 C 37.414062 11.949219 35.859375 13.011719 34.386719 14.164062 C 32.800781 15.398438 31.738281 16.933594 31.488281 18.960938 C 31.402344 19.628906 31.453125 20.300781 31.585938 21.007812 C 36.359375 19.140625 41.109375 19.121094 45.871094 20.984375 C 46.015625 20.484375 46.066406 20 46.046875 19.527344 C 45.972656 17.613281 45.234375 16.003906 43.773438 14.734375 C 42.71875 13.816406 41.550781 13.054688 40.476562 12.085938 M 28.941406 20.511719 C 27.535156 19 25.765625 18.589844 23.789062 18.792969 C 22.199219 18.957031 20.621094 19.257812 19.011719 19.148438 C 18.796875 19.136719 18.726562 19.226562 18.730469 19.429688 C 18.785156 20.960938 18.582031 22.476562 18.445312 23.992188 C 18.238281 26.308594 19.117188 28.203125 20.777344 29.769531 C 21.117188 30.089844 21.464844 30.398438 21.902344 30.640625 C 22.007812 30.441406 22.101562 30.257812 22.195312 30.070312 C 23.117188 28.230469 24.230469 26.527344 25.6875 25.058594 C 26.835938 23.894531 28.097656 22.878906 29.511719 22.050781 C 29.921875 21.808594 29.925781 21.773438 29.664062 21.371094 C 29.464844 21.070312 29.230469 20.800781 28.941406 20.511719 M 54.140625 56.921875 C 54.347656 56.894531 54.558594 56.871094 54.761719 56.84375 C 55.957031 56.6875 57.152344 56.515625 58.363281 56.640625 C 58.777344 56.6875 58.816406 56.625 58.808594 56.191406 C 58.796875 55.5625 58.796875 54.9375 58.828125 54.308594 C 58.878906 53.25 59.019531 52.203125 59.027344 51.140625 C 59.039062 48.90625 57.996094 47.214844 56.359375 45.816406 C 56.09375 45.589844 55.820312 45.359375 55.484375 45.199219 C 53.738281 48.90625 51.164062 51.839844 47.609375 53.847656 C 47.660156 54.105469 47.8125 54.257812 47.9375 54.421875 C 48.871094 55.632812 50.007812 56.5625 51.535156 56.910156 C 52.375 57.101562 53.226562 56.945312 54.140625 56.921875 M 29.65625 53.753906 C 26.214844 51.71875 23.675781 48.871094 22.019531 45.226562 C 21.214844 45.628906 20.644531 46.222656 20.101562 46.84375 C 18.761719 48.371094 18.285156 50.167969 18.464844 52.15625 C 18.582031 53.488281 18.757812 54.820312 18.730469 56.164062 C 18.71875 56.652344 18.765625 56.679688 19.261719 56.628906 C 19.703125 56.582031 20.144531 56.589844 20.589844 56.613281 C 21.878906 56.675781 23.152344 56.917969 24.441406 56.988281 C 26.789062 57.113281 28.464844 56.023438 29.757812 54.179688 C 29.863281 54.027344 29.898438 53.890625 29.65625 53.753906 M 57.324219 19.144531 C 56.714844 19.09375 56.101562 19.046875 55.488281 18.988281 C 54.339844 18.878906 53.203125 18.671875 52.035156 18.804688 C 50.042969 19.023438 48.789062 20.289062 47.589844 21.78125 C 51.226562 23.890625 53.859375 26.871094 55.59375 30.675781 C 56.144531 30.351562 56.554688 29.945312 56.960938 29.539062 C 58.449219 28.046875 59.195312 26.25 59.0625 24.136719 C 58.96875 22.578125 58.675781 21.035156 58.742188 19.46875 C 58.753906 19.1875 58.628906 19.09375 58.351562 19.140625 C 58.035156 19.195312 57.714844 19.175781 57.324219 19.144531 M 56.464844 33.324219 C 56.722656 34.414062 56.910156 35.519531 56.96875 36.636719 C 57.085938 38.824219 56.917969 40.992188 56.234375 43.089844 C 56.132812 43.410156 56.234375 43.503906 56.53125 43.558594 C 57.363281 43.710938 58.171875 43.605469 58.972656 43.375 C 60.390625 42.972656 61.386719 41.992188 62.332031 40.933594 C 63.183594 39.980469 63.960938 38.949219 64.988281 38.164062 C 65.160156 38.035156 65.167969 37.921875 65 37.785156 C 63.800781 36.800781 62.832031 35.601562 61.835938 34.425781 C 60.527344 32.871094 58.851562 32.140625 56.808594 32.277344 C 56.613281 32.292969 56.417969 32.308594 56.234375 32.457031 C 56.308594 32.722656 56.378906 32.996094 56.464844 33.324219 M 20.910156 32.300781 C 20.34375 32.265625 19.777344 32.238281 19.214844 32.316406 C 17.769531 32.523438 16.667969 33.316406 15.730469 34.375 C 14.703125 35.539062 13.710938 36.734375 12.570312 37.792969 C 12.519531 37.84375 12.460938 37.894531 12.472656 38.015625 C 12.921875 38.429688 13.390625 38.863281 13.816406 39.339844 C 14.589844 40.203125 15.296875 41.125 16.148438 41.914062 C 17.445312 43.113281 18.933594 43.777344 20.746094 43.5625 C 21.304688 43.492188 21.355469 43.449219 21.195312 42.894531 C 20.707031 41.21875 20.472656 39.503906 20.496094 37.761719 C 20.519531 36.0625 20.761719 34.382812 21.238281 32.746094 C 21.320312 32.476562 21.234375 32.351562 20.910156 32.300781 Z M 20.910156 32.300781 "/><path style=" stroke:none;fill-rule:nonzero;fill:#ffffff;fill-opacity:1;" d="M 25.429688 32.035156 C 26.347656 30.003906 27.597656 28.246094 29.269531 26.808594 C 31.351562 25.015625 33.75 23.898438 36.464844 23.425781 C 43.890625 22.132812 50.753906 27.140625 52.648438 33.671875 C 53.199219 35.570312 53.367188 37.503906 53.148438 39.476562 C 52.660156 43.90625 50.449219 47.3125 46.898438 49.886719 C 44.867188 51.359375 42.554688 52.1875 40.046875 52.410156 C 35.398438 52.828125 31.519531 51.195312 28.285156 47.914062 C 26.242188 45.839844 25.015625 43.332031 24.496094 40.484375 C 23.964844 37.59375 24.257812 34.773438 25.429688 32.035156 M 28.453125 29.609375 C 25.988281 32.816406 25.101562 36.421875 25.859375 40.390625 C 26.460938 43.546875 28.050781 46.152344 30.5625 48.160156 C 33.902344 50.828125 37.671875 51.785156 41.855469 50.730469 C 45.042969 49.925781 47.566406 48.109375 49.457031 45.433594 C 51.753906 42.179688 52.429688 38.578125 51.527344 34.71875 C 50.742188 31.339844 48.792969 28.726562 45.941406 26.777344 C 44.101562 25.519531 42.058594 24.792969 39.851562 24.605469 C 38.5 24.488281 37.152344 24.613281 35.820312 24.9375 C 32.851562 25.664062 30.421875 27.21875 28.453125 29.609375 Z M 28.453125 29.609375 "/><g style="fill:#ffffff;fill-opacity:1;"><g transform="translate(90.767931, 50.780921)"><path style="stroke:none" d="M 21.109375 -23.265625 L 12.609375 -23.265625 L 12.609375 0 L 9.0625 0 L 9.0625 -23.265625 L 0.546875 -23.265625 L 0.546875 -26.25 L 21.109375 -26.25 Z M 21.109375 -23.265625 "/></g></g><g style="fill:#ffffff;fill-opacity:1;"><g transform="translate(108.226984, 50.780921)"><path style="stroke:none" d="M 12.640625 -8.359375 C 11.140625 -8.304688 9.859375 -8.1875 8.796875 -8 C 7.742188 -7.8125 6.882812 -7.5625 6.21875 -7.25 C 5.550781 -6.945312 5.066406 -6.585938 4.765625 -6.171875 C 4.472656 -5.753906 4.328125 -5.289062 4.328125 -4.78125 C 4.328125 -4.289062 4.40625 -3.867188 4.5625 -3.515625 C 4.71875 -3.160156 4.929688 -2.867188 5.203125 -2.640625 C 5.484375 -2.421875 5.804688 -2.257812 6.171875 -2.15625 C 6.546875 -2.050781 6.953125 -2 7.390625 -2 C 7.960938 -2 8.484375 -2.054688 8.953125 -2.171875 C 9.429688 -2.285156 9.878906 -2.453125 10.296875 -2.671875 C 10.722656 -2.890625 11.128906 -3.148438 11.515625 -3.453125 C 11.898438 -3.765625 12.273438 -4.113281 12.640625 -4.5 Z M 2.109375 -15.9375 C 3.128906 -16.925781 4.234375 -17.664062 5.421875 -18.15625 C 6.609375 -18.644531 7.921875 -18.890625 9.359375 -18.890625 C 10.398438 -18.890625 11.320312 -18.71875 12.125 -18.375 C 12.9375 -18.03125 13.613281 -17.550781 14.15625 -16.9375 C 14.707031 -16.332031 15.125 -15.59375 15.40625 -14.71875 C 15.6875 -13.851562 15.828125 -12.90625 15.828125 -11.875 L 15.828125 0 L 14.375 0 C 14.0625 0 13.816406 -0.0507812 13.640625 -0.15625 C 13.472656 -0.257812 13.34375 -0.460938 13.25 -0.765625 L 12.875 -2.53125 C 12.382812 -2.070312 11.90625 -1.671875 11.4375 -1.328125 C 10.976562 -0.984375 10.492188 -0.691406 9.984375 -0.453125 C 9.472656 -0.210938 8.925781 -0.03125 8.34375 0.09375 C 7.757812 0.226562 7.113281 0.296875 6.40625 0.296875 C 5.6875 0.296875 5.007812 0.195312 4.375 0 C 3.738281 -0.207031 3.1875 -0.507812 2.71875 -0.90625 C 2.25 -1.3125 1.875 -1.820312 1.59375 -2.4375 C 1.320312 -3.0625 1.1875 -3.796875 1.1875 -4.640625 C 1.1875 -5.367188 1.390625 -6.070312 1.796875 -6.75 C 2.203125 -7.425781 2.851562 -8.023438 3.75 -8.546875 C 4.65625 -9.078125 5.832031 -9.507812 7.28125 -9.84375 C 8.738281 -10.175781 10.523438 -10.367188 12.640625 -10.421875 L 12.640625 -11.875 C 12.640625 -13.3125 12.328125 -14.398438 11.703125 -15.140625 C 11.078125 -15.878906 10.171875 -16.25 8.984375 -16.25 C 8.171875 -16.25 7.492188 -16.144531 6.953125 -15.9375 C 6.410156 -15.738281 5.941406 -15.515625 5.546875 -15.265625 C 5.148438 -15.015625 4.804688 -14.789062 4.515625 -14.59375 C 4.222656 -14.394531 3.941406 -14.296875 3.671875 -14.296875 C 3.441406 -14.296875 3.25 -14.351562 3.09375 -14.46875 C 2.9375 -14.582031 2.800781 -14.722656 2.6875 -14.890625 Z M 2.109375 -15.9375 "/></g></g><g style="fill:#ffffff;fill-opacity:1;"><g transform="translate(126.19914, 50.780921)"><path style="stroke:none" d="M 8.28125 0.296875 C 6.8125 0.296875 5.679688 -0.109375 4.890625 -0.921875 C 4.109375 -1.742188 3.71875 -2.925781 3.71875 -4.46875 L 3.71875 -15.828125 L 1.484375 -15.828125 C 1.285156 -15.828125 1.117188 -15.882812 0.984375 -16 C 0.847656 -16.113281 0.78125 -16.296875 0.78125 -16.546875 L 0.78125 -17.84375 L 3.828125 -18.234375 L 4.578125 -23.96875 C 4.617188 -24.144531 4.703125 -24.289062 4.828125 -24.40625 C 4.953125 -24.519531 5.117188 -24.578125 5.328125 -24.578125 L 6.984375 -24.578125 L 6.984375 -18.1875 L 12.34375 -18.1875 L 12.34375 -15.828125 L 6.984375 -15.828125 L 6.984375 -4.6875 C 6.984375 -3.90625 7.171875 -3.320312 7.546875 -2.9375 C 7.921875 -2.5625 8.410156 -2.375 9.015625 -2.375 C 9.359375 -2.375 9.65625 -2.421875 9.90625 -2.515625 C 10.15625 -2.609375 10.367188 -2.707031 10.546875 -2.8125 C 10.734375 -2.925781 10.890625 -3.03125 11.015625 -3.125 C 11.148438 -3.21875 11.265625 -3.265625 11.359375 -3.265625 C 11.523438 -3.265625 11.675781 -3.160156 11.8125 -2.953125 L 12.765625 -1.390625 C 12.203125 -0.867188 11.523438 -0.457031 10.734375 -0.15625 C 9.941406 0.144531 9.125 0.296875 8.28125 0.296875 Z M 8.28125 0.296875 "/></g></g><g style="fill:#ffffff;fill-opacity:1;"><g transform="translate(139.334762, 50.780921)"><path style="stroke:none" d="M 18.484375 -18.5625 L 10.921875 0 L 7.984375 0 L 0.421875 -18.5625 L 3.078125 -18.5625 C 3.347656 -18.5625 3.566406 -18.492188 3.734375 -18.359375 C 3.910156 -18.222656 4.023438 -18.0625 4.078125 -17.875 L 8.796875 -5.9375 C 8.941406 -5.488281 9.066406 -5.046875 9.171875 -4.609375 C 9.285156 -4.179688 9.390625 -3.753906 9.484375 -3.328125 C 9.585938 -3.753906 9.691406 -4.179688 9.796875 -4.609375 C 9.910156 -5.046875 10.046875 -5.488281 10.203125 -5.9375 L 14.96875 -17.875 C 15.039062 -18.070312 15.160156 -18.234375 15.328125 -18.359375 C 15.503906 -18.492188 15.707031 -18.5625 15.9375 -18.5625 Z M 18.484375 -18.5625 "/></g></g><g style="fill:#ffff;fill-opacity:1;"><g transform="translate(157.838202, 50.780921)"><path style="stroke:none" d="M 12.640625 -8.359375 C 11.140625 -8.304688 9.859375 -8.1875 8.796875 -8 C 7.742188 -7.8125 6.882812 -7.5625 6.21875 -7.25 C 5.550781 -6.945312 5.066406 -6.585938 4.765625 -6.171875 C 4.472656 -5.753906 4.328125 -5.289062 4.328125 -4.78125 C 4.328125 -4.289062 4.40625 -3.867188 4.5625 -3.515625 C 4.71875 -3.160156 4.929688 -2.867188 5.203125 -2.640625 C 5.484375 -2.421875 5.804688 -2.257812 6.171875 -2.15625 C 6.546875 -2.050781 6.953125 -2 7.390625 -2 C 7.960938 -2 8.484375 -2.054688 8.953125 -2.171875 C 9.429688 -2.285156 9.878906 -2.453125 10.296875 -2.671875 C 10.722656 -2.890625 11.128906 -3.148438 11.515625 -3.453125 C 11.898438 -3.765625 12.273438 -4.113281 12.640625 -4.5 Z M 2.109375 -15.9375 C 3.128906 -16.925781 4.234375 -17.664062 5.421875 -18.15625 C 6.609375 -18.644531 7.921875 -18.890625 9.359375 -18.890625 C 10.398438 -18.890625 11.320312 -18.71875 12.125 -18.375 C 12.9375 -18.03125 13.613281 -17.550781 14.15625 -16.9375 C 14.707031 -16.332031 15.125 -15.59375 15.40625 -14.71875 C 15.6875 -13.851562 15.828125 -12.90625 15.828125 -11.875 L 15.828125 0 L 14.375 0 C 14.0625 0 13.816406 -0.0507812 13.640625 -0.15625 C 13.472656 -0.257812 13.34375 -0.460938 13.25 -0.765625 L 12.875 -2.53125 C 12.382812 -2.070312 11.90625 -1.671875 11.4375 -1.328125 C 10.976562 -0.984375 10.492188 -0.691406 9.984375 -0.453125 C 9.472656 -0.210938 8.925781 -0.03125 8.34375 0.09375 C 7.757812 0.226562 7.113281 0.296875 6.40625 0.296875 C 5.6875 0.296875 5.007812 0.195312 4.375 0 C 3.738281 -0.207031 3.1875 -0.507812 2.71875 -0.90625 C 2.25 -1.3125 1.875 -1.820312 1.59375 -2.4375 C 1.320312 -3.0625 1.1875 -3.796875 1.1875 -4.640625 C 1.1875 -5.367188 1.390625 -6.070312 1.796875 -6.75 C 2.203125 -7.425781 2.851562 -8.023438 3.75 -8.546875 C 4.65625 -9.078125 5.832031 -9.507812 7.28125 -9.84375 C 8.738281 -10.175781 10.523438 -10.367188 12.640625 -10.421875 L 12.640625 -11.875 C 12.640625 -13.3125 12.328125 -14.398438 11.703125 -15.140625 C 11.078125 -15.878906 10.171875 -16.25 8.984375 -16.25 C 8.171875 -16.25 7.492188 -16.144531 6.953125 -15.9375 C 6.410156 -15.738281 5.941406 -15.515625 5.546875 -15.265625 C 5.148438 -15.015625 4.804688 -14.789062 4.515625 -14.59375 C 4.222656 -14.394531 3.941406 -14.296875 3.671875 -14.296875 C 3.441406 -14.296875 3.25 -14.351562 3.09375 -14.46875 C 2.9375 -14.582031 2.800781 -14.722656 2.6875 -14.890625 Z M 2.109375 -15.9375 "/></g></g></g></svg>