<svg xmlns="http://www.w3.org/2000/svg" xmlns:xlink="http://www.w3.org/1999/xlink" width="282"
    zoomAndPan="magnify" viewBox="0 0 211.5 77.999999" height="104"
    preserveAspectRatio="xMidYMid meet" version="1.2">
    <defs>
        <clipPath id="c5ded0d2d1">
            <path d="M 0 0.09375 L 211 0.09375 L 211 77.90625 L 0 77.90625 Z M 0 0.09375 " />
        </clipPath>
        <clipPath id="07a5ca0dee">
            <path
                d="M 0 1.035156 L 76.46875 1.035156 L 76.46875 77.503906 L 0 77.503906 Z M 0 1.035156 " />
        </clipPath>
        <clipPath id="f165d197d9">
            <path
                d="M 22.445312 1.035156 L 54.023438 1.035156 C 59.976562 1.035156 65.683594 3.398438 69.894531 7.609375 C 74.105469 11.820312 76.46875 17.527344 76.46875 23.480469 L 76.46875 55.058594 C 76.46875 61.011719 74.105469 66.71875 69.894531 70.929688 C 65.683594 75.140625 59.976562 77.503906 54.023438 77.503906 L 22.445312 77.503906 C 16.492188 77.503906 10.785156 75.140625 6.574219 70.929688 C 2.363281 66.71875 0 61.011719 0 55.058594 L 0 23.480469 C 0 17.527344 2.363281 11.820312 6.574219 7.609375 C 10.785156 3.398438 16.492188 1.035156 22.445312 1.035156 Z M 22.445312 1.035156 " />
        </clipPath>
        <clipPath id="856c3e4937">
            <path d="M 8.183594 9.292969 L 68 9.292969 L 68 69 L 8.183594 69 Z M 8.183594 9.292969 " />
        </clipPath>
    </defs>
    <g id="babe15d052">
        <g clip-rule="nonzero" clip-path="url(#c5ded0d2d1)">
            <path style=" stroke:none;fill-rule:nonzero;fill:#ffffff;fill-opacity:1;"
                d="M 0 0.09375 L 211 0.09375 L 211 77.90625 L 0 77.90625 Z M 0 0.09375 " />
        </g>
        <g clip-rule="nonzero" clip-path="url(#07a5ca0dee)">
            <g clip-rule="nonzero" clip-path="url(#f165d197d9)">
                <path style=" stroke:none;fill-rule:nonzero;fill:#e7000b;fill-opacity:1;"
                    d="M 0 1.035156 L 76.46875 1.035156 L 76.46875 77.503906 L 0 77.503906 Z M 0 1.035156 " />
            </g>
        </g>
        <g clip-rule="nonzero" clip-path="url(#856c3e4937)">
            <path style=" stroke:none;fill-rule:nonzero;fill:#ffffff;fill-opacity:1;"
                d="M 19.265625 47.03125 C 16.550781 53.308594 17.078125 58.414062 17.117188 58.722656 L 17.273438 60.0625 L 18.613281 60.21875 C 18.921875 60.253906 24.035156 60.792969 30.316406 58.070312 C 32.832031 64.429688 36.8125 67.664062 37.054688 67.855469 L 38.113281 68.691406 L 39.171875 67.855469 C 39.414062 67.664062 43.410156 64.433594 45.925781 58.066406 C 52.199219 60.78125 57.304688 60.253906 57.609375 60.21875 L 58.949219 60.0625 L 59.105469 58.722656 C 59.140625 58.414062 59.683594 53.304688 56.960938 47.027344 C 63.320312 44.511719 66.554688 40.523438 66.746094 40.28125 L 67.582031 39.222656 L 66.746094 38.167969 C 66.554688 37.921875 63.324219 33.929688 56.960938 31.414062 C 59.679688 25.136719 59.140625 20.03125 59.109375 19.726562 L 58.949219 18.386719 L 57.609375 18.230469 C 57.304688 18.191406 52.195312 17.652344 45.917969 20.378906 C 43.402344 14.019531 39.414062 10.78125 39.171875 10.589844 L 38.113281 9.753906 L 37.054688 10.589844 C 36.8125 10.78125 32.820312 14.011719 30.308594 20.375 C 24.03125 17.65625 18.925781 18.191406 18.617188 18.226562 L 17.28125 18.382812 L 17.121094 19.722656 C 17.082031 20.035156 16.546875 25.136719 19.265625 31.414062 C 12.902344 33.929688 9.671875 37.917969 9.480469 38.164062 L 8.644531 39.21875 L 9.480469 40.277344 C 9.671875 40.519531 12.902344 44.515625 19.265625 47.03125 Z M 18.816406 58.519531 C 18.816406 58.519531 18.246094 53.648438 20.882812 47.613281 C 21.609375 47.847656 22.367188 48.058594 23.15625 48.246094 C 21.742188 51.355469 21.277344 54.125 21.144531 55.957031 L 21.125 56.203125 L 21.375 56.183594 C 31.605469 55.4375 37.476562 47.835938 38.117188 47.433594 C 39.421875 48.6875 39.902344 49.28125 41.519531 50.625 C 41.394531 51.496094 41.222656 52.359375 41 53.210938 C 39.984375 52.445312 39.023438 51.613281 38.117188 50.722656 C 28.972656 59.710938 18.816406 58.519531 18.816406 58.519531 Z M 23.601562 53.734375 C 23.945312 52.015625 24.527344 50.316406 25.324219 48.675781 C 26.28125 48.828125 27.285156 48.941406 28.332031 49.003906 C 28.398438 50.050781 28.515625 51.050781 28.671875 52.007812 C 27.050781 52.792969 25.363281 53.367188 23.601562 53.730469 Z M 40.429688 40.722656 C 40.605469 40.453125 40.734375 40.152344 40.808594 39.828125 C 43.515625 39.402344 45.640625 40.300781 47.097656 42.9375 C 44.039062 43.738281 41.921875 42.832031 40.429688 40.722656 Z M 41.839844 48.203125 C 39.125 46.617188 38.25 44.488281 38.691406 41.925781 C 39.011719 41.855469 39.308594 41.734375 39.585938 41.558594 C 41.863281 43.214844 42.65625 45.375 41.839844 48.203125 Z M 40.8125 38.640625 C 40.746094 38.320312 40.621094 38.023438 40.445312 37.746094 C 42.101562 35.46875 44.261719 34.675781 47.09375 35.492188 C 45.644531 37.96875 43.625 39.125 40.8125 38.640625 Z M 39.609375 36.902344 C 39.335938 36.722656 39.039062 36.597656 38.71875 36.523438 C 38.578125 35.621094 38.519531 34.335938 39.007812 33.164062 C 39.667969 31.570312 41.164062 30.601562 41.824219 30.234375 C 42.621094 33.273438 41.742188 35.394531 39.609375 36.902344 Z M 40.160156 39.222656 C 40.160156 39.492188 40.109375 39.753906 40.003906 40.007812 C 39.898438 40.257812 39.75 40.480469 39.558594 40.671875 C 39.367188 40.863281 39.144531 41.011719 38.894531 41.113281 C 38.644531 41.21875 38.382812 41.273438 38.109375 41.273438 C 36.980469 41.273438 36.058594 40.351562 36.058594 39.222656 C 36.058594 38.089844 36.980469 37.171875 38.109375 37.171875 C 38.382812 37.171875 38.644531 37.222656 38.894531 37.328125 C 39.144531 37.433594 39.367188 37.582031 39.558594 37.773438 C 39.75 37.964844 39.898438 38.1875 40.003906 38.4375 C 40.109375 38.6875 40.160156 38.949219 40.160156 39.222656 Z M 37.53125 36.519531 C 37.210938 36.585938 36.910156 36.710938 36.632812 36.886719 C 35.894531 36.347656 34.949219 35.480469 34.460938 34.304688 C 33.800781 32.710938 34.171875 30.964844 34.382812 30.238281 C 37.097656 31.828125 37.96875 33.957031 37.53125 36.519531 Z M 35.789062 37.722656 C 35.609375 37.996094 35.484375 38.292969 35.414062 38.613281 C 32.691406 39.039062 30.574219 38.136719 29.121094 35.507812 C 32.164062 34.707031 34.289062 35.597656 35.789062 37.722656 Z M 35.40625 39.800781 C 35.476562 40.125 35.601562 40.425781 35.773438 40.695312 C 34.171875 42.902344 32.046875 43.792969 29.128906 42.949219 C 30.582031 40.464844 32.605469 39.320312 35.40625 39.800781 Z M 36.609375 41.542969 C 36.878906 41.71875 37.179688 41.847656 37.503906 41.917969 C 37.929688 44.644531 37.019531 46.757812 34.394531 48.210938 C 33.597656 45.167969 34.488281 43.042969 36.609375 41.542969 Z M 40.472656 54.949219 C 39.785156 56.921875 38.917969 58.523438 38.109375 59.746094 C 37.136719 58.28125 36.351562 56.675781 35.753906 54.953125 C 36.574219 54.359375 37.359375 53.726562 38.117188 53.054688 C 38.871094 53.726562 39.65625 54.359375 40.472656 54.949219 Z M 38.113281 66.515625 C 38.113281 66.515625 34.269531 63.46875 31.867188 57.335938 C 32.570312 56.980469 33.253906 56.59375 33.925781 56.179688 C 35.273438 59.792969 36.691406 61.410156 38.109375 63.238281 L 38.269531 63.054688 C 44.972656 55.289062 43.753906 45.765625 43.921875 45.027344 C 45.726562 44.996094 46.773438 45.054688 48.585938 44.878906 C 49.117188 45.582031 49.605469 46.3125 50.054688 47.070312 C 48.789062 47.246094 47.519531 47.339844 46.246094 47.351562 C 46.136719 60.171875 38.113281 66.515625 38.113281 66.515625 Z M 50.910156 48.671875 C 51.824219 50.554688 52.34375 52.304688 52.628906 53.742188 C 50.902344 53.394531 49.203125 52.816406 47.566406 52.019531 C 47.722656 51.054688 47.835938 50.050781 47.894531 49.003906 C 48.90625 48.941406 49.910156 48.832031 50.910156 48.671875 Z M 57.410156 58.519531 C 57.410156 58.519531 52.535156 59.085938 46.503906 56.449219 C 46.738281 55.722656 46.953125 54.96875 47.140625 54.175781 C 50.636719 55.769531 52.773438 55.914062 55.097656 56.210938 L 55.082031 55.960938 C 54.347656 45.757812 46.726562 39.863281 46.324219 39.222656 C 47.703125 37.792969 48.28125 37.3125 49.519531 35.816406 C 50.433594 35.945312 51.300781 36.117188 52.109375 36.328125 C 51.339844 37.347656 50.507812 38.3125 49.613281 39.222656 C 58.605469 48.363281 57.410156 58.519531 57.410156 58.519531 Z M 53.84375 36.855469 C 55.824219 37.542969 57.421875 38.410156 58.640625 39.222656 C 57.179688 40.195312 55.566406 40.980469 53.839844 41.582031 C 53.25 40.765625 52.617188 39.976562 51.945312 39.222656 C 52.617188 38.464844 53.25 37.675781 53.84375 36.855469 Z M 65.40625 39.222656 C 65.40625 39.222656 62.359375 43.074219 56.230469 45.476562 C 55.871094 44.773438 55.488281 44.085938 55.074219 43.410156 C 58.65625 42.074219 60.300781 40.644531 62.132812 39.222656 L 61.949219 39.0625 C 54.207031 32.359375 44.660156 33.585938 43.921875 33.414062 C 43.886719 31.617188 43.949219 30.683594 43.773438 28.753906 C 44.476562 28.222656 45.207031 27.734375 45.964844 27.28125 C 46.128906 28.484375 46.234375 29.753906 46.246094 31.089844 C 59.0625 31.199219 65.40625 39.222656 65.40625 39.222656 Z M 47.566406 26.429688 C 49.449219 25.515625 51.191406 24.996094 52.628906 24.707031 C 52.285156 26.429688 51.707031 28.132812 50.914062 29.769531 C 49.914062 29.609375 48.90625 29.5 47.894531 29.441406 C 47.835938 28.429688 47.726562 27.429688 47.566406 26.429688 Z M 57.410156 19.925781 C 57.410156 19.925781 57.972656 24.800781 55.335938 30.832031 C 54.589844 30.589844 53.832031 30.375 53.070312 30.195312 C 54.488281 27.082031 54.949219 24.316406 55.082031 22.484375 L 55.097656 22.238281 L 54.851562 22.253906 C 44.617188 22.988281 38.765625 30.605469 38.117188 31.015625 C 36.734375 29.679688 36.113281 28.96875 34.710938 27.820312 C 34.832031 26.949219 35 26.085938 35.222656 25.230469 C 36.242188 26 37.207031 26.832031 38.117188 27.726562 C 47.257812 18.734375 57.410156 19.925781 57.410156 19.925781 Z M 35.75 23.492188 C 36.4375 21.515625 37.300781 19.914062 38.113281 18.695312 C 39.089844 20.15625 39.882812 21.769531 40.480469 23.492188 C 39.660156 24.085938 38.875 24.71875 38.117188 25.390625 C 37.359375 24.71875 36.570312 24.085938 35.75 23.492188 Z M 38.113281 11.929688 C 38.113281 11.929688 41.953125 14.984375 44.359375 21.113281 C 43.65625 21.46875 42.96875 21.855469 42.296875 22.273438 C 40.941406 18.652344 39.535156 17.039062 38.113281 15.207031 L 37.949219 15.390625 C 31.261719 23.113281 32.476562 32.679688 32.308594 33.414062 C 30.339844 33.453125 29.578125 33.378906 27.648438 33.570312 C 27.113281 32.867188 26.625 32.132812 26.179688 31.371094 C 27.441406 31.195312 28.710938 31.101562 29.984375 31.089844 C 30.089844 18.273438 38.113281 11.929688 38.113281 11.929688 Z M 25.328125 29.773438 C 24.417969 27.890625 23.898438 26.148438 23.609375 24.707031 C 25.363281 25.066406 27.050781 25.636719 28.664062 26.421875 C 28.503906 27.421875 28.394531 28.429688 28.332031 29.441406 C 27.285156 29.5 26.285156 29.621094 25.328125 29.773438 Z M 18.816406 19.921875 C 18.816406 19.921875 23.695312 19.355469 29.722656 21.988281 C 29.480469 22.738281 29.269531 23.496094 29.089844 24.261719 C 25.988281 22.851562 23.226562 22.386719 21.382812 22.253906 L 21.136719 22.238281 L 21.15625 22.480469 C 21.902344 32.714844 29.503906 38.578125 29.90625 39.222656 C 28.265625 40.964844 28.710938 40.320312 26.699219 42.628906 C 25.832031 42.503906 24.976562 42.332031 24.128906 42.113281 C 24.894531 41.09375 25.726562 40.132812 26.621094 39.222656 C 17.628906 30.089844 18.816406 19.921875 18.816406 19.921875 Z M 22.386719 41.582031 C 20.417969 40.894531 18.816406 40.03125 17.589844 39.214844 C 19.054688 38.246094 20.664062 37.460938 22.386719 36.863281 C 22.980469 37.679688 23.613281 38.46875 24.28125 39.222656 C 23.613281 39.980469 22.980469 40.765625 22.386719 41.582031 Z M 20 32.972656 C 20.359375 33.675781 20.746094 34.363281 21.160156 35.035156 C 17.542969 36.390625 15.910156 37.8125 14.097656 39.214844 L 14.28125 39.375 C 22.046875 46.082031 31.570312 44.859375 32.308594 45.027344 C 32.34375 46.832031 32.277344 47.816406 32.460938 49.695312 C 31.757812 50.222656 31.023438 50.710938 30.265625 51.15625 C 30.089844 49.894531 29.996094 48.625 29.984375 47.351562 C 17.167969 47.25 10.820312 39.21875 10.820312 39.21875 C 10.820312 39.21875 13.871094 35.375 20 32.972656 Z M 20 32.972656 " />
        </g>
        <g style="fill:#000000;fill-opacity:1;">
            <g transform="translate(90.685609, 53.605424)">
                <path style="stroke:none"
                    d="M 10.203125 0 L 10.203125 -25.359375 L 0.40625 -25.359375 L 0.40625 -28.734375 L 23.546875 -28.734375 L 23.546875 -25.359375 L 13.75 -25.359375 L 13.75 0 Z M 10.203125 0 " />
            </g>
        </g>
        <g style="fill:#000000;fill-opacity:1;">
            <g transform="translate(111.833413, 53.605424)">
                <path style="stroke:none"
                    d="M 8.921875 0.59375 C 7.304688 0.59375 5.957031 0.300781 4.875 -0.28125 C 3.789062 -0.875 2.972656 -1.65625 2.421875 -2.625 C 1.867188 -3.601562 1.59375 -4.671875 1.59375 -5.828125 C 1.59375 -6.953125 1.804688 -7.929688 2.234375 -8.765625 C 2.671875 -9.597656 3.28125 -10.289062 4.0625 -10.84375 C 4.851562 -11.394531 5.796875 -11.832031 6.890625 -12.15625 C 7.910156 -12.4375 9.054688 -12.675781 10.328125 -12.875 C 11.597656 -13.082031 12.882812 -13.269531 14.1875 -13.4375 C 15.488281 -13.613281 16.707031 -13.785156 17.84375 -13.953125 L 16.5625 -13.203125 C 16.601562 -15.117188 16.21875 -16.535156 15.40625 -17.453125 C 14.601562 -18.367188 13.21875 -18.828125 11.25 -18.828125 C 9.945312 -18.828125 8.804688 -18.53125 7.828125 -17.9375 C 6.847656 -17.351562 6.160156 -16.394531 5.765625 -15.0625 L 2.390625 -16.078125 C 2.910156 -17.972656 3.914062 -19.457031 5.40625 -20.53125 C 6.894531 -21.601562 8.859375 -22.140625 11.296875 -22.140625 C 13.242188 -22.140625 14.921875 -21.789062 16.328125 -21.09375 C 17.734375 -20.394531 18.742188 -19.34375 19.359375 -17.9375 C 19.660156 -17.269531 19.847656 -16.546875 19.921875 -15.765625 C 20.003906 -14.992188 20.046875 -14.179688 20.046875 -13.328125 L 20.046875 0 L 16.90625 0 L 16.90625 -5.171875 L 17.640625 -4.6875 C 16.828125 -2.945312 15.691406 -1.628906 14.234375 -0.734375 C 12.773438 0.148438 11.003906 0.59375 8.921875 0.59375 Z M 9.453125 -2.375 C 10.734375 -2.375 11.84375 -2.601562 12.78125 -3.0625 C 13.71875 -3.519531 14.472656 -4.125 15.046875 -4.875 C 15.617188 -5.625 15.988281 -6.445312 16.15625 -7.34375 C 16.363281 -8.007812 16.472656 -8.75 16.484375 -9.5625 C 16.503906 -10.382812 16.515625 -11.015625 16.515625 -11.453125 L 17.765625 -10.921875 C 16.597656 -10.753906 15.457031 -10.597656 14.34375 -10.453125 C 13.226562 -10.304688 12.171875 -10.148438 11.171875 -9.984375 C 10.171875 -9.816406 9.273438 -9.617188 8.484375 -9.390625 C 7.898438 -9.210938 7.347656 -8.972656 6.828125 -8.671875 C 6.316406 -8.378906 5.90625 -8.003906 5.59375 -7.546875 C 5.28125 -7.085938 5.125 -6.519531 5.125 -5.84375 C 5.125 -5.257812 5.273438 -4.703125 5.578125 -4.171875 C 5.878906 -3.640625 6.34375 -3.207031 6.96875 -2.875 C 7.601562 -2.539062 8.429688 -2.375 9.453125 -2.375 Z M 9.453125 -2.375 " />
            </g>
        </g>
        <g style="fill:#000000;fill-opacity:1;">
            <g transform="translate(134.278121, 53.605424)">
                <path style="stroke:none"
                    d="M 14.828125 0 C 13.546875 0.25 12.28125 0.347656 11.03125 0.296875 C 9.789062 0.253906 8.6875 0.00390625 7.71875 -0.453125 C 6.75 -0.910156 6.007812 -1.625 5.5 -2.59375 C 5.082031 -3.445312 4.851562 -4.304688 4.8125 -5.171875 C 4.78125 -6.046875 4.765625 -7.035156 4.765625 -8.140625 L 4.765625 -27.53125 L 8.328125 -27.53125 L 8.328125 -8.296875 C 8.328125 -7.421875 8.332031 -6.671875 8.34375 -6.046875 C 8.363281 -5.421875 8.503906 -4.878906 8.765625 -4.421875 C 9.242188 -3.578125 10.003906 -3.082031 11.046875 -2.9375 C 12.085938 -2.789062 13.347656 -2.828125 14.828125 -3.046875 Z M 0.40625 -18.609375 L 0.40625 -21.546875 L 14.828125 -21.546875 L 14.828125 -18.609375 Z M 0.40625 -18.609375 " />
            </g>
        </g>
        <g style="fill:#000000;fill-opacity:1;">
            <g transform="translate(150.69767, 53.605424)">
                <path style="stroke:none"
                    d="M 8.625 0 L 0.796875 -21.546875 L 4.390625 -21.546875 L 10.4375 -4.53125 L 16.46875 -21.546875 L 20.078125 -21.546875 L 12.25 0 Z M 8.625 0 " />
            </g>
        </g>
        <g style="fill:#000000;fill-opacity:1;">
            <g transform="translate(170.369163, 53.605424)">
                <path style="stroke:none"
                    d="M 8.921875 0.59375 C 7.304688 0.59375 5.957031 0.300781 4.875 -0.28125 C 3.789062 -0.875 2.972656 -1.65625 2.421875 -2.625 C 1.867188 -3.601562 1.59375 -4.671875 1.59375 -5.828125 C 1.59375 -6.953125 1.804688 -7.929688 2.234375 -8.765625 C 2.671875 -9.597656 3.28125 -10.289062 4.0625 -10.84375 C 4.851562 -11.394531 5.796875 -11.832031 6.890625 -12.15625 C 7.910156 -12.4375 9.054688 -12.675781 10.328125 -12.875 C 11.597656 -13.082031 12.882812 -13.269531 14.1875 -13.4375 C 15.488281 -13.613281 16.707031 -13.785156 17.84375 -13.953125 L 16.5625 -13.203125 C 16.601562 -15.117188 16.21875 -16.535156 15.40625 -17.453125 C 14.601562 -18.367188 13.21875 -18.828125 11.25 -18.828125 C 9.945312 -18.828125 8.804688 -18.53125 7.828125 -17.9375 C 6.847656 -17.351562 6.160156 -16.394531 5.765625 -15.0625 L 2.390625 -16.078125 C 2.910156 -17.972656 3.914062 -19.457031 5.40625 -20.53125 C 6.894531 -21.601562 8.859375 -22.140625 11.296875 -22.140625 C 13.242188 -22.140625 14.921875 -21.789062 16.328125 -21.09375 C 17.734375 -20.394531 18.742188 -19.34375 19.359375 -17.9375 C 19.660156 -17.269531 19.847656 -16.546875 19.921875 -15.765625 C 20.003906 -14.992188 20.046875 -14.179688 20.046875 -13.328125 L 20.046875 0 L 16.90625 0 L 16.90625 -5.171875 L 17.640625 -4.6875 C 16.828125 -2.945312 15.691406 -1.628906 14.234375 -0.734375 C 12.773438 0.148438 11.003906 0.59375 8.921875 0.59375 Z M 9.453125 -2.375 C 10.734375 -2.375 11.84375 -2.601562 12.78125 -3.0625 C 13.71875 -3.519531 14.472656 -4.125 15.046875 -4.875 C 15.617188 -5.625 15.988281 -6.445312 16.15625 -7.34375 C 16.363281 -8.007812 16.472656 -8.75 16.484375 -9.5625 C 16.503906 -10.382812 16.515625 -11.015625 16.515625 -11.453125 L 17.765625 -10.921875 C 16.597656 -10.753906 15.457031 -10.597656 14.34375 -10.453125 C 13.226562 -10.304688 12.171875 -10.148438 11.171875 -9.984375 C 10.171875 -9.816406 9.273438 -9.617188 8.484375 -9.390625 C 7.898438 -9.210938 7.347656 -8.972656 6.828125 -8.671875 C 6.316406 -8.378906 5.90625 -8.003906 5.59375 -7.546875 C 5.28125 -7.085938 5.125 -6.519531 5.125 -5.84375 C 5.125 -5.257812 5.273438 -4.703125 5.578125 -4.171875 C 5.878906 -3.640625 6.34375 -3.207031 6.96875 -2.875 C 7.601562 -2.539062 8.429688 -2.375 9.453125 -2.375 Z M 9.453125 -2.375 " />
            </g>
        </g>
    </g>
</svg>